<?xml version="1.0" encoding="utf-8"?>
<!-- Generator: Adobe Illustrator 16.0.4, SVG Export Plug-In . SVG Version: 6.00 Build 0)  -->
<!DOCTYPE svg PUBLIC "-//W3C//DTD SVG 1.1//EN" "http://www.w3.org/Graphics/SVG/1.1/DTD/svg11.dtd">
<svg version="1.1" id="Layer_1" xmlns="http://www.w3.org/2000/svg" xmlns:xlink="http://www.w3.org/1999/xlink" x="0px" y="0px"
	 width="512px" height="107.708px" viewBox="0 0 512 107.708" enable-background="new 0 0 512 107.708" xml:space="preserve">
<g>
	<g>
		<path d="M0,75.503c0-0.478,0.17-0.837,0.513-1.077c0.341-0.239,0.752-0.375,1.231-0.411c0.478-0.033,1.094-0.22,1.847-0.563
			c0.752-0.342,1.437-0.821,2.052-1.436c0.272-0.272,0.496-0.565,0.667-0.872c0.17-0.308,0.341-0.735,0.513-1.282
			c0.17-0.546,0.323-1.078,0.461-1.59c0.136-0.513,0.268-1.278,0.394-2.297c0.125-1.018,0.244-1.969,0.353-2.851
			c0.109-0.881,0.261-2.103,0.455-3.664c0.192-1.561,0.374-3.02,0.542-4.377c0.167-1.358,0.391-3.174,0.673-5.447
			c0.282-2.272,0.549-4.429,0.803-6.466c0.468-3.799,1.031-8.346,1.688-13.639s1.157-9.333,1.501-12.115
			c0.343-2.783,0.517-4.209,0.517-4.278c0-1.779-0.582-3.098-1.744-3.954c-1.164-0.856-2.616-1.387-4.36-1.592
			S5.455,7.25,5.387,7.181C4.839,6.976,4.566,6.565,4.566,5.95c0-1.026,0.923-1.539,2.77-1.539c0.752,0,2.153,0.12,4.201,0.359
			c2.049,0.24,4.147,0.359,6.295,0.359c1.609,0,3.488-0.119,5.632-0.359c2.145-0.239,3.458-0.359,3.937-0.359
			c1.231,0,1.847,0.513,1.847,1.539c0,0.479-0.326,0.805-0.975,0.975c-0.65,0.171-1.436,0.377-2.359,0.616
			c-0.923,0.24-1.59,0.598-2.001,1.076c-0.753,0.888-1.317,2.152-1.692,3.791c-0.377,1.638-0.835,4.497-1.377,8.575
			c-0.542,4.08-1.02,7.683-1.435,10.809c-0.274,1.587-0.411,2.824-0.411,3.712c0,0.508,0.085,0.825,0.257,0.952
			c0.17,0.128,0.494,0.191,0.97,0.191c0.817,0,2.076,0.016,3.776,0.048c1.701,0.032,5.205,0.062,10.513,0.094
			c5.308,0.032,11.873,0.08,19.699,0.143h2.042c1.156,0,1.904-0.222,2.244-0.666c0.339-0.442,0.612-1.52,0.817-3.231
			c0.066-0.545,0.292-2.398,0.676-5.559c0.385-3.161,0.731-6.017,1.042-8.566c0.311-2.548,0.449-4.018,0.414-4.413
			c0-3.251-1.369-5.452-4.104-6.602c-0.343-0.135-1.01-0.253-2-0.356c-0.992-0.101-1.831-0.271-2.513-0.512
			c-0.685-0.238-1.026-0.598-1.026-1.077c0-0.888,0.923-1.333,2.77-1.333c0.683,0,2.155,0.051,4.412,0.154
			c2.256,0.103,4.444,0.154,6.565,0.154c1.641,0,3.401-0.067,5.283-0.205c1.88-0.136,3.06-0.205,3.539-0.205
			c1.503,0,2.257,0.513,2.257,1.539c0,0.548-0.68,0.975-2.039,1.282c-1.359,0.308-2.278,0.77-2.754,1.385
			c-1.428,1.712-2.448,5.714-3.059,12.009c-0.961,7.588-1.907,15.042-2.833,22.359c-0.927,7.317-1.618,12.771-2.073,16.361
			c-0.456,3.591-0.682,5.899-0.682,6.925c0,0.753,0.034,1.471,0.103,2.154c0.068,0.685,0.154,1.267,0.257,1.744
			c0.103,0.48,0.272,0.907,0.513,1.283c0.239,0.376,0.426,0.703,0.564,0.975c0.136,0.274,0.393,0.497,0.77,0.667
			c0.375,0.171,0.631,0.307,0.769,0.41c0.136,0.103,0.427,0.206,0.872,0.308c0.444,0.102,0.718,0.154,0.821,0.154
			s0.393,0.018,0.872,0.051c0.478,0.036,0.751,0.051,0.821,0.051c2.257,0.139,3.385,0.753,3.385,1.847
			c0,0.82-0.616,1.231-1.847,1.231c-1.3,0-3.01-0.154-5.129-0.461c-2.121-0.308-3.898-0.462-5.334-0.462
			c-1.984,0-3.898,0.138-5.745,0.411s-3.01,0.411-3.488,0.411c-2.189,0-3.283-0.446-3.283-1.334c0-0.888,0.651-1.4,1.954-1.539
			c0.753-0.067,1.439-0.307,2.057-0.717c0.617-0.411,1.098-0.786,1.441-1.129c0.343-0.342,0.633-0.957,0.874-1.845
			c0.241-0.888,0.394-1.471,0.463-1.745c0.069-0.272,0.171-0.956,0.309-2.052l0.199-1.631c1.906-13.615,2.86-21.006,2.86-22.17
			c0-0.751-0.189-1.213-0.567-1.385c-0.378-0.17-1.356-0.256-2.937-0.256c-0.412,0-1.752,0.018-4.019,0.051
			c-2.267,0.035-4.362,0.051-6.285,0.051H20.247c-1.168,0-1.839,0.107-2.01,0.322c-0.171,0.214-0.326,1-0.463,2.358l-0.694,5.2
			c-1.414,9.925-2.121,15.64-2.121,17.145c0,1.164,0.101,2.157,0.303,2.978c0.202,0.821,0.404,1.472,0.606,1.951
			c0.202,0.479,0.574,0.907,1.116,1.284c0.542,0.377,0.917,0.6,1.122,0.667c0.205,0.07,0.683,0.206,1.436,0.41
			c0.752,0.206,1.162,0.309,1.231,0.309c0.206,0.068,0.444,0.12,0.718,0.154c0.272,0.035,0.478,0.087,0.616,0.153
			c0.136,0.07,0.323,0.121,0.564,0.154c0.239,0.036,0.41,0.087,0.513,0.154c0.103,0.069,0.222,0.154,0.359,0.256
			c0.136,0.103,0.221,0.223,0.256,0.359c0.034,0.138,0.051,0.274,0.051,0.411c0,0.615-0.548,0.924-1.641,0.924
			c-1.369,0-3.036-0.034-5.004-0.103c-1.968-0.067-3.894-0.103-5.779-0.103c-0.74,0-2.043,0.087-3.909,0.257
			c-1.866,0.169-3.208,0.256-4.028,0.256C1.162,76.939,0,76.462,0,75.503z"/>
		<path d="M77.35,59.294c0-6.976,2.273-13.267,6.822-18.875c4.548-5.607,10.594-8.412,18.139-8.412c4.645,0,8.196,1.728,10.65,5.181
			c2.452,3.454,3.68,7.78,3.68,12.977c0,4.447-0.848,8.719-2.541,12.823s-4.333,7.576-7.918,10.413
			c-3.586,2.839-7.702,4.258-12.349,4.258c-4.742,0-8.673-1.573-11.797-4.719C78.911,69.794,77.35,65.245,77.35,59.294z
			 M86.069,59.397c0,4.925,0.833,8.687,2.502,11.284c1.667,2.601,3.796,3.899,6.383,3.899c2.587,0,4.885-0.924,6.896-2.771
			c2.008-1.846,3.541-4.154,4.596-6.925c1.054-2.77,1.856-5.539,2.401-8.309s0.817-5.317,0.817-7.643
			c0-4.581-0.835-8.035-2.502-10.361c-1.668-2.324-3.762-3.488-6.282-3.488c-2.589,0-5.075,1.146-7.457,3.437
			c-2.384,2.292-4.155,5.421-5.312,9.387C86.749,52.696,86.069,56.525,86.069,59.397z"/>
		<path d="M122.549,67.81c0-1.708,0.207-4.04,0.621-6.992c0.413-2.951,0.81-5.767,1.185-8.447c0.375-2.68,0.572-4.089,0.591-4.226
			c0.266-1.897,0.728-5.188,1.385-9.872c0.657-4.682,1.143-8.143,1.458-10.382c2.252-13.875,3.378-21.051,3.378-21.53
			c0-1.367-0.825-2.052-2.475-2.052c-0.557,0-1.095,0.018-1.614,0.051c-0.521,0.035-0.989,0.051-1.406,0.051
			c-2.013,0-3.02-0.478-3.02-1.437c0-0.888,0.52-1.367,1.562-1.436c2.776-0.205,5.286-0.513,7.529-0.923
			C133.984,0.205,135.458,0,136.163,0c1.319,0,1.979,0.548,1.979,1.641c0,0.548-0.122,1.327-0.362,2.339
			c-0.24,1.011-0.388,1.787-0.441,2.326c-0.805,5.836-1.41,10.248-1.821,13.234c-0.411,2.986-0.885,6.431-1.42,10.332
			c-0.535,3.903-1.205,8.773-2.006,14.607c-1.712,13.769-2.566,21.134-2.566,22.093c0,1.713,0.101,2.81,0.305,3.29
			c0.203,0.479,0.644,0.718,1.322,0.718c1.289,0,2.441-0.375,3.459-1.128c1.016-0.752,1.779-1.591,2.289-2.514
			c0.508-0.923,1.085-1.76,1.729-2.513c0.644-0.751,1.237-1.128,1.779-1.128c0.814,0,1.221,0.548,1.221,1.641
			c0,0.958-1.71,3.42-5.129,7.386c-1.231,1.436-2.753,2.652-4.565,3.642c-1.813,0.991-3.267,1.487-4.36,1.487
			c-0.753,0-1.334-0.069-1.744-0.205c-0.411-0.138-0.908-0.461-1.488-0.974c-0.582-0.513-1.026-1.488-1.333-2.924
			C122.703,71.913,122.549,70.066,122.549,67.81z"/>
		<path d="M146.953,67.81c0-1.708,0.207-4.04,0.621-6.992c0.414-2.951,0.81-5.767,1.185-8.447c0.375-2.68,0.572-4.089,0.591-4.226
			c0.266-1.897,0.728-5.188,1.385-9.872c0.657-4.682,1.143-8.143,1.458-10.382c2.252-13.875,3.379-21.051,3.379-21.53
			c0-1.367-0.826-2.052-2.475-2.052c-0.556,0-1.095,0.018-1.614,0.051c-0.521,0.035-0.989,0.051-1.405,0.051
			c-2.014,0-3.021-0.478-3.021-1.437c0-0.888,0.52-1.367,1.562-1.436c2.776-0.205,5.287-0.513,7.529-0.923
			C158.388,0.205,159.861,0,160.566,0c1.319,0,1.98,0.548,1.98,1.641c0,0.548-0.122,1.327-0.363,2.339
			c-0.24,1.011-0.388,1.787-0.44,2.326c-0.805,5.836-1.411,10.248-1.821,13.234c-0.41,2.986-0.885,6.431-1.42,10.332
			c-0.536,3.903-1.206,8.773-2.007,14.607c-1.712,13.769-2.566,21.134-2.566,22.093c0,1.713,0.101,2.81,0.305,3.29
			c0.203,0.479,0.644,0.718,1.322,0.718c1.289,0,2.441-0.375,3.459-1.128c1.016-0.752,1.779-1.591,2.289-2.514
			c0.508-0.923,1.085-1.76,1.729-2.513c0.645-0.751,1.237-1.128,1.779-1.128c0.814,0,1.221,0.548,1.221,1.641
			c0,0.958-1.71,3.42-5.129,7.386c-1.23,1.436-2.753,2.652-4.565,3.642c-1.813,0.991-3.267,1.487-4.36,1.487
			c-0.753,0-1.333-0.069-1.744-0.205c-0.411-0.138-0.907-0.461-1.488-0.974c-0.582-0.513-1.026-1.488-1.333-2.924
			C147.107,71.913,146.953,70.066,146.953,67.81z"/>
		<path d="M164.319,89.456c0-0.89,0.324-1.677,0.975-2.36c0.649-0.684,1.419-1.026,2.309-1.026c1.298,0,2.701,0.565,4.206,1.693
			c1.503,1.128,3.078,1.693,4.719,1.693c2.667,0,5.453-2.241,8.361-6.72c2.906-4.48,4.36-7.915,4.36-10.31
			c0-3.35-2.172-9.557-6.514-18.62c-4.344-9.061-7.746-13.592-10.208-13.592c-1.71,0-2.924,0.633-3.642,1.897
			c-0.718,1.267-1.231,2.549-1.539,3.847c-0.308,1.3-0.872,1.949-1.692,1.949c-0.685,0-1.026-0.752-1.026-2.257
			c0-1.709,0.239-3.504,0.718-5.386c0.478-1.88,1.385-3.658,2.719-5.335c1.333-1.675,2.957-2.513,4.873-2.513
			c2.257,0,4.668,1.523,7.232,4.565c2.565,3.044,4.735,6.378,6.514,10.002c1.778,3.626,3.35,6.96,4.719,10.002
			c1.367,3.043,2.154,4.565,2.359,4.565c0.683,0,1.47-2.118,2.359-6.36c0.888-4.24,1.334-8.069,1.334-11.49
			c0-1.026-0.428-2.359-1.283-4.001c-0.855-1.641-1.282-2.906-1.282-3.795c0-1.026,0.29-1.914,0.872-2.667
			c0.58-0.752,1.452-1.128,2.616-1.128c1.162,0,2.119,0.513,2.872,1.539c0.752,1.026,1.129,2.326,1.129,3.898
			c0,2.873-0.736,7.54-2.206,14.003c-1.472,6.462-3.574,13.148-6.309,20.055c-6.293,15.935-13.302,23.902-21.03,23.902
			C167.157,95.507,164.319,93.49,164.319,89.456z"/>
		<path d="M229.256,75.503c0-0.478,0.17-0.837,0.513-1.077c0.341-0.239,0.751-0.375,1.231-0.411c0.478-0.033,1.093-0.22,1.847-0.563
			c0.751-0.342,1.436-0.821,2.051-1.436c0.273-0.272,0.496-0.565,0.667-0.872c0.17-0.308,0.341-0.735,0.513-1.282
			c0.17-0.546,0.323-1.078,0.461-1.59c0.136-0.513,0.268-1.278,0.395-2.297c0.125-1.018,0.244-1.969,0.353-2.851
			c0.109-0.881,0.261-2.103,0.455-3.664c0.192-1.561,0.374-3.02,0.542-4.377c0.167-1.358,0.391-3.174,0.673-5.447
			c0.282-2.272,0.549-4.429,0.803-6.466c0.468-3.799,1.031-8.346,1.688-13.639s1.157-9.333,1.502-12.115
			c0.343-2.783,0.516-4.209,0.516-4.278c0-1.779-0.582-3.098-1.744-3.954c-1.164-0.856-2.616-1.387-4.36-1.592
			s-2.651-0.341-2.718-0.41c-0.548-0.206-0.821-0.616-0.821-1.231c0-1.026,0.923-1.539,2.77-1.539c0.751,0,2.152,0.12,4.201,0.359
			c2.049,0.24,4.147,0.359,6.295,0.359c1.609,0,3.488-0.119,5.632-0.359c2.145-0.239,3.458-0.359,3.937-0.359
			c1.231,0,1.847,0.513,1.847,1.539c0,0.479-0.326,0.805-0.975,0.975c-0.651,0.171-1.437,0.377-2.359,0.616
			c-0.923,0.24-1.59,0.598-2,1.076c-0.753,0.888-1.318,2.152-1.693,3.791c-0.377,1.638-0.835,4.497-1.377,8.575
			c-0.542,4.08-1.02,7.683-1.435,10.809c-0.274,1.587-0.411,2.824-0.411,3.712c0,0.508,0.085,0.825,0.257,0.952
			c0.17,0.128,0.494,0.191,0.97,0.191c0.817,0,2.076,0.016,3.776,0.048c1.701,0.032,5.205,0.062,10.514,0.094
			c5.307,0.032,11.873,0.08,19.698,0.143h2.042c1.156,0,1.904-0.222,2.244-0.666c0.339-0.442,0.612-1.52,0.817-3.231
			c0.066-0.545,0.292-2.398,0.676-5.559c0.385-3.161,0.731-6.017,1.042-8.566c0.311-2.548,0.449-4.018,0.414-4.413
			c0-3.251-1.369-5.452-4.104-6.602c-0.343-0.135-1.01-0.253-2-0.356c-0.992-0.101-1.83-0.271-2.513-0.512
			c-0.685-0.238-1.026-0.598-1.026-1.077c0-0.888,0.923-1.333,2.77-1.333c0.683,0,2.155,0.051,4.412,0.154
			c2.257,0.103,4.445,0.154,6.565,0.154c1.641,0,3.401-0.067,5.283-0.205c1.88-0.136,3.06-0.205,3.539-0.205
			c1.503,0,2.257,0.513,2.257,1.539c0,0.548-0.68,0.975-2.039,1.282c-1.359,0.308-2.278,0.77-2.754,1.385
			c-1.428,1.712-2.448,5.714-3.059,12.009c-0.961,7.588-1.907,15.042-2.833,22.359c-0.927,7.317-1.618,12.771-2.073,16.361
			s-0.681,5.899-0.681,6.925c0,0.753,0.034,1.471,0.103,2.154c0.067,0.685,0.154,1.267,0.256,1.744
			c0.103,0.48,0.272,0.907,0.513,1.283c0.239,0.376,0.427,0.703,0.564,0.975c0.136,0.274,0.393,0.497,0.77,0.667
			c0.375,0.171,0.631,0.307,0.77,0.41c0.136,0.103,0.426,0.206,0.872,0.308c0.444,0.102,0.718,0.154,0.821,0.154
			s0.393,0.018,0.872,0.051c0.478,0.036,0.751,0.051,0.821,0.051c2.257,0.139,3.385,0.753,3.385,1.847
			c0,0.82-0.616,1.231-1.847,1.231c-1.3,0-3.01-0.154-5.129-0.461c-2.121-0.308-3.898-0.462-5.335-0.462
			c-1.984,0-3.898,0.138-5.745,0.411s-3.01,0.411-3.488,0.411c-2.189,0-3.282-0.446-3.282-1.334c0-0.888,0.651-1.4,1.954-1.539
			c0.753-0.067,1.439-0.307,2.057-0.717c0.617-0.411,1.098-0.786,1.441-1.129c0.343-0.342,0.633-0.957,0.874-1.845
			c0.24-0.888,0.394-1.471,0.463-1.745c0.069-0.272,0.171-0.956,0.309-2.052l0.199-1.631c1.906-13.615,2.86-21.006,2.86-22.17
			c0-0.751-0.189-1.213-0.567-1.385c-0.378-0.17-1.356-0.256-2.937-0.256c-0.412,0-1.752,0.018-4.019,0.051
			c-2.267,0.035-4.362,0.051-6.285,0.051h-24.215c-1.168,0-1.839,0.107-2.01,0.322c-0.171,0.214-0.325,1-0.463,2.358l-0.694,5.2
			c-1.414,9.925-2.121,15.64-2.121,17.145c0,1.164,0.101,2.157,0.303,2.978c0.202,0.821,0.404,1.472,0.606,1.951
			c0.202,0.479,0.574,0.907,1.116,1.284c0.542,0.377,0.917,0.6,1.122,0.667c0.205,0.07,0.683,0.206,1.436,0.41
			c0.752,0.206,1.162,0.309,1.231,0.309c0.206,0.068,0.444,0.12,0.718,0.154c0.273,0.035,0.478,0.087,0.616,0.153
			c0.136,0.07,0.324,0.121,0.564,0.154c0.239,0.036,0.411,0.087,0.513,0.154c0.103,0.069,0.222,0.154,0.359,0.256
			c0.136,0.103,0.221,0.223,0.257,0.359c0.033,0.138,0.051,0.274,0.051,0.411c0,0.615-0.548,0.924-1.641,0.924
			c-1.369,0-3.036-0.034-5.004-0.103c-1.968-0.067-3.894-0.103-5.779-0.103c-0.74,0-2.043,0.087-3.909,0.257
			c-1.866,0.169-3.208,0.256-4.028,0.256C230.418,76.939,229.256,76.462,229.256,75.503z"/>
		<path d="M307.601,64.937c0-4.991,1.914-10.566,5.745-16.722c4.104-6.427,8.72-10.874,13.849-13.336
			c2.529-1.231,5.026-1.847,7.489-1.847c1.026,0,2.444,0.189,4.257,0.564c1.811,0.376,3.298,0.564,4.462,0.564
			c0.683,0,1.572-0.836,2.667-2.513c1.093-1.675,1.983-2.514,2.667-2.514c0.752,0,1.128,0.513,1.128,1.539
			c0,0.616-0.292,1.744-0.872,3.386c-0.582,1.641-0.975,2.873-1.18,3.693c-0.069,0.274-0.856,4.652-2.359,13.131
			c-1.231,6.771-1.847,11.148-1.847,13.13c0,1.437,0.341,2.805,1.026,4.104c0.683,1.3,1.503,1.95,2.462,1.95
			c1.231,0,2.65-1.111,4.257-3.334c1.606-2.222,2.683-3.334,3.231-3.334c0.616,0,0.923,0.377,0.923,1.128
			c0,1.231-0.615,2.703-1.847,4.412c-1.436,2.12-3.128,4.052-5.078,5.796s-3.575,2.616-4.873,2.616
			c-1.916,0-3.352-0.957-4.309-2.872c-0.958-1.914-1.523-3.83-1.692-5.745c-0.172-1.914-0.292-2.872-0.359-2.872
			c-0.069,0-0.461,0.428-1.18,1.283c-0.718,0.855-1.677,1.881-2.873,3.078c-1.197,1.197-2.531,2.394-4.001,3.59
			c-1.471,1.197-3.164,2.223-5.078,3.078c-1.916,0.854-3.796,1.282-5.642,1.282c-4.378,0-7.301-1.18-8.771-3.54
			C308.335,72.272,307.601,69.041,307.601,64.937z M314.577,64.322c0,2.462,0.769,4.446,2.308,5.949
			c1.539,1.506,3.437,2.258,5.694,2.258c3.145,0,5.898-1.078,8.258-3.232s3.983-4.155,4.873-6.001
			c0.751-1.437,1.555-4.171,2.411-8.207c0.854-4.035,1.539-7.625,2.052-10.772c0.513-3.145,0.769-4.855,0.769-5.129
			c0-1.231-0.753-2.137-2.257-2.719c-1.505-0.58-3.01-0.872-4.514-0.872c-2.189,0-4.48,0.753-6.873,2.257
			c-2.395,1.505-4.344,3.523-5.848,6.053c-3.557,5.883-5.677,10.841-6.36,14.875C314.747,60.833,314.577,62.68,314.577,64.322z"/>
		<path d="M356.082,46.266c0-2.188,0.311-4.171,0.934-5.95c0.622-1.778,1.368-3.145,2.233-4.104
			c0.865-0.957,1.782-1.778,2.752-2.462c0.968-0.683,1.782-1.128,2.439-1.333s1.125-0.308,1.403-0.308
			c1.717,0,3.041,1.197,3.97,3.59c1.718,4.514,2.682,6.771,2.887,6.771c0.067,0,0.718-0.872,1.949-2.616s2.889-3.504,4.975-5.283
			c2.086-1.777,4.258-2.667,6.515-2.667c1.231,0,2.17,0.325,2.821,0.975c0.649,0.651,0.975,1.385,0.975,2.206
			c0,0.548-0.189,1.3-0.565,2.257c-0.376,0.958-0.563,1.472-0.563,1.539l-0.103,0.821c-0.138,0.616-0.274,1.095-0.41,1.437
			c-0.138,0.343-0.359,0.702-0.667,1.077c-0.309,0.377-0.667,0.564-1.078,0.564c-0.615,0-1.128-0.359-1.539-1.077
			c-0.41-0.718-0.923-1.436-1.539-2.154c-0.615-0.718-1.436-1.077-2.462-1.077c-1.984,0-3.659,2.052-5.026,6.155
			c-1.369,4.104-2.257,7.968-2.667,11.592l-0.513,3.385c-1.231,9.643-2.121,15.013-2.667,16.106c-0.716,0.89-1.791,1.333-3.22,1.333
			h-0.536c-2.147,0-3.22-0.888-3.22-2.667c0-1.092,0.768-5.129,2.306-12.104c1.539-6.976,2.308-11.9,2.308-14.773
			c0-4.65-1.216-6.976-3.648-6.976c-1.241,0-2.274,0.497-3.102,1.487c-0.827,0.992-1.447,2.121-1.861,3.386
			c-0.414,1.266-0.655,1.933-0.723,2c-0.41,0.411-0.787,0.616-1.128,0.616C356.492,48.01,356.082,47.43,356.082,46.266z"/>
		<path d="M389.329,95.405c0-0.958,0.7-1.744,2.103-2.358c1.401-0.616,2.206-1.232,2.411-1.848c0.136-0.343,0.342-1.677,0.616-4.001
			c3.93-28.641,6.296-44.768,7.098-48.382l0.029-0.205c0-0.436-0.171-0.654-0.513-0.654c-0.343,0-1.197,0.308-2.564,0.923
			c-1.369,0.616-2.257,0.923-2.667,0.923c-0.89,0-1.333-0.41-1.333-1.231v-0.41c0-0.616,0.239-1.06,0.718-1.334
			c0.821-0.341,1.624-0.649,2.411-0.923c0.785-0.272,1.401-0.496,1.847-0.667c0.443-0.17,0.854-0.29,1.23-0.359
			c0.375-0.067,0.655-0.206,0.833-0.411c0.181-0.205,0.334-0.308,0.462-0.308s0.219-0.17,0.271-0.513
			c0.051-0.341,0.09-0.564,0.115-0.667c0.025-0.102,0.08-0.44,0.164-1.014s0.157-1.062,0.218-1.47
			c0.156-1.08,0.347-2.38,0.572-3.903c0.223-1.521,0.385-2.539,0.486-3.052c0.1-0.513,0.268-1.128,0.505-1.846
			c0.235-0.718,0.538-1.247,0.908-1.59c0.37-0.341,0.859-0.683,1.465-1.026c0.942-0.478,1.918-0.718,2.928-0.718
			c0.943,0,1.415,0.582,1.415,1.744c0,1.026-0.455,3.08-1.364,6.157c-0.909,3.077-1.362,5.095-1.362,6.052v0.41
			c0,0.343,0.168,0.513,0.505,0.513c0.134,0,0.555-0.051,1.262-0.154c0.707-0.103,1.699-0.188,2.978-0.256
			c1.279-0.067,2.727-0.103,4.342-0.103c11.915,0,17.873,4.583,17.873,13.747c0,5.678-1.243,10.771-3.727,15.286
			c-0.128,0.273-0.367,0.735-0.716,1.384c-0.352,0.651-0.606,1.095-0.765,1.334c-0.161,0.24-0.399,0.65-0.717,1.231
			c-0.319,0.582-0.598,1.025-0.836,1.333c-0.239,0.307-0.581,0.718-1.023,1.231c-0.443,0.513-0.87,0.958-1.279,1.333
			c-0.411,0.377-0.904,0.804-1.485,1.283c-0.58,0.479-1.211,0.958-1.894,1.436c-4.027,2.873-8.529,4.31-13.511,4.31
			c-0.546,0-1.484-0.068-2.814-0.206c-1.331-0.136-2.235-0.205-2.712-0.205c-0.615,0-1.008,0.172-1.178,0.511
			c-0.17,0.34-0.357,1.329-0.563,2.967c-0.155,1.084-0.272,1.966-0.349,2.643c-0.1,0.746-0.229,1.729-0.391,2.951
			c-0.162,1.221-0.295,2.221-0.398,3.001c-0.103,0.777-0.154,1.306-0.154,1.579c0,1.5,0.719,2.542,2.155,3.124
			c1.436,0.579,2.854,0.972,4.257,1.179c1.401,0.203,2.103,0.613,2.103,1.229c0,0.889-0.479,1.334-1.437,1.334
			c-1.23,0-3.029-0.019-5.395-0.052c-2.366-0.034-3.996-0.051-4.894-0.051c-0.829,0-1.879,0.017-3.15,0.051
			c-1.271,0.033-2.078,0.052-2.418,0.052h-0.923C389.909,96.739,389.329,96.293,389.329,95.405z M403.299,71.4
			c0,0.274,0.136,0.582,0.41,0.923c0.272,0.344,0.891,0.685,1.853,1.026c0.961,0.343,2.168,0.513,3.616,0.513
			c4.895,0,9.309-2.684,13.238-8.053c3.931-5.368,5.896-10.548,5.896-15.542c0-2.667-0.497-4.976-1.489-6.924
			c-0.993-1.949-2.156-3.419-3.489-4.412c-1.335-0.99-2.892-1.777-4.671-2.359c-1.779-0.58-3.235-0.939-4.363-1.077
			c-1.13-0.136-2.208-0.205-3.233-0.205c-0.617,0-1.147,0.051-1.591,0.154c-0.446,0.103-0.735,0.154-0.872,0.154
			c-0.549,0-1.13,2.634-1.746,7.898l-1.507,11.392C403.981,65.143,403.299,70.648,403.299,71.4z"/>
		<path d="M439.606,61.551c0-4.309,1.026-8.582,3.078-12.823c2.052-4.24,4.889-8.036,8.514-11.387
			c3.83-3.624,8.582-5.437,14.26-5.437c2.433,0,4.512,0.718,6.237,2.154c1.723,1.436,2.584,3.249,2.584,5.437
			c0,1.71-0.409,3.334-1.226,4.873c-0.817,1.539-1.839,2.821-3.065,3.847c-1.227,1.026-2.299,1.831-3.219,2.411
			c-0.92,0.582-1.72,1.01-2.401,1.282c-3.951,1.779-9.299,2.703-16.042,2.77c-1.164,0-1.745,1.402-1.745,4.206
			c0,3.967,1.232,7.097,3.693,9.387c2.462,2.292,6.155,3.436,11.08,3.436c1.709,0,3.401-0.375,5.078-1.128
			c1.675-0.751,3.042-1.487,4.104-2.206c1.059-0.717,1.692-1.077,1.898-1.077c0.82,0,1.231,0.343,1.231,1.026
			c0,1.436-1.967,3.385-5.899,5.847c-3.933,2.463-7.917,3.693-11.952,3.693c-6.087,0-10.31-1.436-12.669-4.308
			C440.785,70.681,439.606,66.681,439.606,61.551z M448.018,50.883c0,1.369,0.308,2.052,0.923,2.052
			c4.855,0,9.13-1.368,12.823-4.104c3.693-2.735,5.54-5.745,5.54-9.028c0-1.709-0.6-2.939-1.795-3.693
			c-1.197-0.752-2.411-1.128-3.642-1.128c-2.53,0-5.334,1.607-8.412,4.821c-1.369,1.437-2.616,3.42-3.744,5.95
			C448.582,48.284,448.018,49.995,448.018,50.883z"/>
		<path d="M478.146,46.266c0-2.188,0.311-4.171,0.935-5.95c0.622-1.778,1.367-3.145,2.232-4.104
			c0.866-0.957,1.783-1.778,2.752-2.462c0.968-0.683,1.783-1.128,2.44-1.333s1.125-0.308,1.402-0.308
			c1.716,0,3.041,1.197,3.971,3.59c1.718,4.514,2.681,6.771,2.886,6.771c0.068,0,0.718-0.872,1.95-2.616
			c1.231-1.744,2.888-3.504,4.975-5.283c2.086-1.777,4.258-2.667,6.515-2.667c1.231,0,2.17,0.325,2.821,0.975
			c0.649,0.651,0.975,1.385,0.975,2.206c0,0.548-0.189,1.3-0.564,2.257c-0.376,0.958-0.564,1.472-0.564,1.539l-0.102,0.821
			c-0.138,0.616-0.274,1.095-0.411,1.437c-0.138,0.343-0.359,0.702-0.667,1.077c-0.308,0.377-0.667,0.564-1.077,0.564
			c-0.615,0-1.128-0.359-1.539-1.077c-0.41-0.718-0.923-1.436-1.539-2.154c-0.615-0.718-1.436-1.077-2.462-1.077
			c-1.984,0-3.659,2.052-5.027,6.155s-2.256,7.968-2.667,11.592l-0.513,3.385c-1.231,9.643-2.121,15.013-2.667,16.106
			c-0.717,0.89-1.791,1.333-3.22,1.333h-0.536c-2.148,0-3.221-0.888-3.221-2.667c0-1.092,0.768-5.129,2.307-12.104
			c1.539-6.976,2.308-11.9,2.308-14.773c0-4.65-1.217-6.976-3.648-6.976c-1.241,0-2.275,0.497-3.102,1.487
			c-0.828,0.992-1.448,2.121-1.861,3.386c-0.414,1.266-0.655,1.933-0.723,2c-0.411,0.411-0.788,0.616-1.129,0.616
			C478.557,48.01,478.146,47.43,478.146,46.266z"/>
	</g>
	<g>
		<path d="M198.6,86.913c0-0.301,0.241-0.572,0.572-0.572h8.607c3.612,0,6.561,2.89,6.561,6.471c0,2.769-1.836,5.026-4.455,6.079
			l4.124,7.645c0.21,0.392,0,0.873-0.512,0.873h-3.16c-0.271,0-0.421-0.15-0.481-0.271l-4.003-7.977h-3.34v7.676
			c0,0.301-0.271,0.571-0.572,0.571h-2.769c-0.332,0-0.572-0.271-0.572-0.571V86.913z M207.449,95.941
			c1.595,0,2.979-1.384,2.979-3.07c0-1.595-1.384-2.919-2.979-2.919h-4.906v5.989H207.449z"/>
		<path d="M219.044,86.913c0-0.301,0.241-0.572,0.572-0.572h12.25c0.331,0,0.572,0.271,0.572,0.572v2.468
			c0,0.301-0.241,0.571-0.572,0.571h-8.909v4.937h7.434c0.301,0,0.572,0.271,0.572,0.571v2.498c0,0.331-0.271,0.571-0.572,0.571
			h-7.434v5.268h8.909c0.331,0,0.572,0.271,0.572,0.571v2.469c0,0.301-0.241,0.571-0.572,0.571h-12.25
			c-0.331,0-0.572-0.271-0.572-0.571V86.913z"/>
		<path d="M235.116,106.625l9.36-20.255c0.09-0.181,0.241-0.331,0.512-0.331h0.301c0.301,0,0.421,0.15,0.512,0.331l9.27,20.255
			c0.181,0.392-0.06,0.782-0.512,0.782h-2.619c-0.451,0-0.662-0.181-0.873-0.603l-1.475-3.249h-8.999l-1.475,3.249
			c-0.121,0.302-0.391,0.603-0.873,0.603h-2.618C235.176,107.408,234.936,107.017,235.116,106.625z M248.118,100.215l-3.01-6.622
			h-0.09l-2.95,6.622H248.118z"/>
		<path d="M258.302,86.913c0-0.301,0.241-0.572,0.572-0.572h2.769c0.301,0,0.572,0.271,0.572,0.572v16.884h7.674
			c0.331,0,0.572,0.271,0.572,0.571v2.469c0,0.301-0.241,0.571-0.572,0.571h-11.015c-0.331,0-0.572-0.271-0.572-0.571V86.913z"/>
		<path d="M282.014,86.913c0-0.301,0.241-0.572,0.572-0.572h12.25c0.331,0,0.572,0.271,0.572,0.572v2.468
			c0,0.301-0.241,0.571-0.572,0.571h-8.909v4.937h7.434c0.301,0,0.572,0.271,0.572,0.571v2.498c0,0.331-0.271,0.571-0.572,0.571
			h-7.434v5.268h8.909c0.331,0,0.572,0.271,0.572,0.571v2.469c0,0.301-0.241,0.571-0.572,0.571h-12.25
			c-0.331,0-0.572-0.271-0.572-0.571V86.913z"/>
		<path d="M298.893,104.458l1.083-1.866c0.241-0.422,0.752-0.422,1.023-0.211c0.151,0.091,2.588,1.866,4.545,1.866
			c1.565,0,2.738-1.023,2.738-2.317c0-1.535-1.294-2.588-3.822-3.612c-2.829-1.144-5.658-2.949-5.658-6.5
			c0-2.679,1.986-5.778,6.771-5.778c3.07,0,5.417,1.564,6.02,2.016c0.301,0.181,0.391,0.693,0.181,0.994l-1.144,1.715
			c-0.241,0.361-0.692,0.603-1.053,0.361c-0.241-0.15-2.528-1.655-4.184-1.655c-1.715,0-2.648,1.144-2.648,2.106
			c0,1.414,1.114,2.378,3.552,3.371c2.919,1.174,6.29,2.919,6.29,6.802c0,3.1-2.679,5.959-6.922,5.959
			c-3.792,0-6.02-1.775-6.621-2.348C298.772,105.09,298.622,104.94,298.893,104.458z"/>
		<path d="M320.002,89.952h-4.605c-0.331,0-0.571-0.271-0.571-0.571v-2.468c0-0.301,0.241-0.572,0.571-0.572h13.152
			c0.331,0,0.572,0.271,0.572,0.572v2.468c0,0.301-0.241,0.571-0.572,0.571h-4.604v16.885c0,0.301-0.271,0.571-0.572,0.571h-2.799
			c-0.301,0-0.572-0.271-0.572-0.571V89.952z"/>
		<path d="M328.502,106.625l9.36-20.255c0.09-0.181,0.241-0.331,0.511-0.331h0.301c0.301,0,0.421,0.15,0.511,0.331l9.27,20.255
			c0.181,0.392-0.06,0.782-0.512,0.782h-2.618c-0.452,0-0.663-0.181-0.873-0.603l-1.475-3.249h-8.999l-1.475,3.249
			c-0.121,0.302-0.391,0.603-0.873,0.603h-2.619C328.562,107.408,328.321,107.017,328.502,106.625z M341.504,100.215l-3.01-6.622
			h-0.09l-2.949,6.622H341.504z"/>
		<path d="M353.013,89.952h-4.605c-0.331,0-0.571-0.271-0.571-0.571v-2.468c0-0.301,0.241-0.572,0.571-0.572h13.152
			c0.331,0,0.572,0.271,0.572,0.572v2.468c0,0.301-0.241,0.571-0.572,0.571h-4.605v16.885c0,0.301-0.271,0.571-0.572,0.571h-2.799
			c-0.301,0-0.572-0.271-0.572-0.571V89.952z"/>
		<path d="M365.503,86.913c0-0.301,0.241-0.572,0.572-0.572h12.25c0.331,0,0.572,0.271,0.572,0.572v2.468
			c0,0.301-0.241,0.571-0.572,0.571h-8.909v4.937h7.434c0.301,0,0.571,0.271,0.571,0.571v2.498c0,0.331-0.27,0.571-0.571,0.571
			h-7.434v5.268h8.909c0.331,0,0.572,0.271,0.572,0.571v2.469c0,0.301-0.241,0.571-0.572,0.571h-12.25
			c-0.331,0-0.572-0.271-0.572-0.571V86.913z"/>
	</g>
</g>
</svg>
