<?xml version="1.0" encoding="utf-8"?>
<!-- Generator: Adobe Illustrator 16.0.4, SVG Export Plug-In . SVG Version: 6.00 Build 0)  -->
<!DOCTYPE svg PUBLIC "-//W3C//DTD SVG 1.1//EN" "http://www.w3.org/Graphics/SVG/1.1/DTD/svg11.dtd">
<svg version="1.1" id="Layer_1" xmlns="http://www.w3.org/2000/svg" xmlns:xlink="http://www.w3.org/1999/xlink" x="0px" y="0px"
	 width="128px" height="164.857px" viewBox="0 0 128 164.857" enable-background="new 0 0 128 164.857" xml:space="preserve">
<g>
	<g>
		<path d="M0,94.315c0-0.634,0.226-1.11,0.681-1.43c0.453-0.316,0.997-0.497,1.633-0.544c0.634-0.044,1.45-0.293,2.45-0.748
			c0.997-0.453,1.905-1.089,2.722-1.905c0.361-0.362,0.657-0.749,0.885-1.157c0.226-0.409,0.453-0.975,0.681-1.701
			c0.225-0.726,0.429-1.429,0.612-2.11c0.181-0.681,0.355-1.695,0.523-3.047c0.166-1.35,0.323-2.611,0.468-3.781
			c0.145-1.17,0.346-2.79,0.604-4.861c0.255-2.072,0.496-4.007,0.719-5.808c0.221-1.802,0.519-4.211,0.894-7.227
			c0.374-3.015,0.729-5.875,1.064-8.578c0.622-5.04,1.368-11.072,2.24-18.094c0.872-7.022,1.535-12.381,1.992-16.072
			c0.456-3.691,0.685-5.584,0.685-5.676c0-2.36-0.772-4.11-2.313-5.246c-1.544-1.135-3.471-1.839-5.784-2.112
			C8.44,3.947,7.236,3.766,7.147,3.675C6.42,3.402,6.059,2.858,6.059,2.042C6.059,0.681,7.283,0,9.733,0
			c0.997,0,2.855,0.16,5.573,0.476c2.718,0.319,5.501,0.477,8.351,0.477c2.135,0,4.627-0.158,7.473-0.477
			C33.976,0.16,35.717,0,36.353,0c1.633,0,2.45,0.681,2.45,2.042c0,0.636-0.432,1.068-1.293,1.293
			c-0.863,0.228-1.905,0.5-3.13,0.817c-1.225,0.319-2.11,0.793-2.654,1.427c-1,1.178-1.748,2.855-2.246,5.029
			c-0.5,2.173-1.107,5.966-1.826,11.377c-0.719,5.412-1.353,10.192-1.903,14.339c-0.364,2.105-0.545,3.747-0.545,4.925
			c0,0.674,0.113,1.095,0.341,1.263c0.225,0.17,0.655,0.253,1.286,0.253c1.084,0,2.754,0.021,5.01,0.064
			c2.256,0.042,6.905,0.083,13.948,0.125c7.041,0.042,15.751,0.106,26.133,0.19h2.709c1.534,0,2.526-0.294,2.978-0.883
			c0.45-0.587,0.812-2.016,1.084-4.287c0.087-0.723,0.387-3.181,0.897-7.375c0.51-4.193,0.97-7.983,1.382-11.364
			c0.413-3.381,0.595-5.331,0.549-5.854c0-4.313-1.816-7.232-5.444-8.759c-0.455-0.179-1.34-0.336-2.654-0.472
			c-1.316-0.134-2.428-0.359-3.334-0.678c-0.908-0.317-1.361-0.793-1.361-1.429c0-1.178,1.225-1.769,3.674-1.769
			c0.906,0,2.858,0.068,5.853,0.204c2.994,0.137,5.896,0.205,8.71,0.205c2.178,0,4.512-0.089,7.009-0.272
			c2.494-0.181,4.06-0.272,4.695-0.272c1.994,0,2.994,0.681,2.994,2.042c0,0.728-0.901,1.293-2.705,1.702s-3.021,1.021-3.653,1.837
			c-1.895,2.271-3.247,7.581-4.058,15.932c-1.275,10.067-2.53,19.955-3.759,29.663c-1.229,9.708-2.146,16.942-2.75,21.706
			c-0.604,4.763-0.904,7.825-0.904,9.187c0,1,0.045,1.952,0.136,2.858c0.089,0.908,0.204,1.68,0.34,2.314
			c0.137,0.636,0.362,1.203,0.681,1.701c0.317,0.5,0.566,0.931,0.749,1.292c0.181,0.364,0.521,0.659,1.021,0.885
			c0.498,0.228,0.838,0.408,1.021,0.544c0.181,0.136,0.566,0.272,1.157,0.408c0.589,0.136,0.953,0.204,1.089,0.204
			c0.136,0,0.521,0.023,1.156,0.068c0.634,0.046,0.998,0.068,1.089,0.068c2.994,0.183,4.491,1,4.491,2.45
			c0,1.088-0.816,1.633-2.449,1.633c-1.726,0-3.994-0.204-6.805-0.612c-2.813-0.409-5.172-0.613-7.077-0.613
			c-2.632,0-5.171,0.183-7.622,0.544c-2.45,0.361-3.993,0.544-4.627,0.544c-2.905,0-4.355-0.591-4.355-1.77
			c0-1.178,0.863-1.858,2.592-2.042c0.999-0.089,1.909-0.408,2.728-0.952c0.819-0.545,1.457-1.042,1.912-1.497
			c0.455-0.453,0.84-1.27,1.159-2.448c0.319-1.178,0.523-1.95,0.614-2.313c0.092-0.362,0.228-1.27,0.411-2.722l0.263-2.165
			c2.529-18.062,3.794-27.868,3.794-29.412c0-0.998-0.251-1.61-0.753-1.837c-0.501-0.226-1.798-0.34-3.896-0.34
			c-0.546,0-2.324,0.023-5.331,0.068c-3.007,0.046-5.787,0.068-8.338,0.068H26.86c-1.55,0-2.439,0.143-2.667,0.427
			c-0.228,0.285-0.432,1.327-0.615,3.128l-0.92,6.898c-1.876,13.167-2.813,20.749-2.813,22.745c0,1.544,0.134,2.862,0.402,3.951
			c0.268,1.089,0.536,1.953,0.804,2.588s0.761,1.204,1.48,1.703c0.719,0.5,1.217,0.795,1.489,0.885
			c0.272,0.091,0.906,0.272,1.905,0.544c0.998,0.272,1.542,0.408,1.633,0.408c0.272,0.091,0.589,0.16,0.953,0.204
			c0.362,0.047,0.633,0.115,0.816,0.205c0.181,0.091,0.429,0.159,0.749,0.204c0.317,0.047,0.544,0.115,0.681,0.204
			c0.136,0.092,0.293,0.205,0.477,0.34c0.181,0.136,0.293,0.295,0.34,0.477c0.044,0.183,0.068,0.363,0.068,0.544
			c0,0.816-0.727,1.225-2.177,1.225c-1.816,0-4.027-0.044-6.639-0.136c-2.611-0.09-5.166-0.136-7.666-0.136
			c-0.982,0-2.711,0.115-5.187,0.34c-2.475,0.225-4.255,0.34-5.344,0.34C1.542,96.221,0,95.586,0,94.315z"/>
	</g>
	<g>
		<path d="M26.336,162.543c0-0.633,0.226-1.109,0.681-1.428c0.453-0.317,0.997-0.498,1.633-0.545c0.634-0.045,1.45-0.293,2.45-0.749
			c0.997-0.452,1.905-1.088,2.722-1.905c0.361-0.361,0.657-0.748,0.885-1.157c0.226-0.407,0.453-0.974,0.681-1.701
			c0.225-0.725,0.429-1.428,0.612-2.108c0.181-0.681,0.355-1.695,0.523-3.048c0.166-1.351,0.323-2.611,0.468-3.781
			c0.145-1.169,0.346-2.79,0.604-4.86c0.255-2.071,0.496-4.007,0.719-5.809c0.221-1.8,0.519-4.21,0.894-7.226
			c0.374-3.015,0.729-5.875,1.064-8.577c0.622-5.04,1.368-11.073,2.24-18.095c0.872-7.022,1.535-12.381,1.992-16.072
			c0.456-3.692,0.685-5.584,0.685-5.676c0-2.36-0.771-4.11-2.313-5.246c-1.544-1.136-3.471-1.839-5.784-2.112
			c-2.314-0.272-3.518-0.453-3.606-0.544c-0.728-0.272-1.089-0.817-1.089-1.633c0-1.361,1.225-2.042,3.675-2.042
			c0.997,0,2.855,0.16,5.573,0.477c2.718,0.319,5.501,0.477,8.351,0.477c2.135,0,4.627-0.158,7.473-0.477
			c2.846-0.317,4.587-0.477,5.223-0.477c1.633,0,2.45,0.681,2.45,2.042c0,0.636-0.432,1.068-1.293,1.293
			c-0.863,0.227-1.905,0.5-3.13,0.816c-1.225,0.319-2.11,0.793-2.654,1.427c-1,1.178-1.748,2.856-2.246,5.029
			c-0.5,2.173-1.107,5.967-1.826,11.377c-0.719,5.412-1.353,10.192-1.903,14.339c-0.364,2.105-0.545,3.747-0.545,4.925
			c0,0.674,0.113,1.095,0.341,1.263c0.225,0.17,0.655,0.253,1.286,0.253c1.084,0,2.754,0.021,5.01,0.064s6.905,0.083,13.948,0.125
			c7.041,0.042,15.751,0.106,26.133,0.189h2.71c1.532,0,2.525-0.293,2.977-0.882c0.45-0.588,0.812-2.016,1.085-4.288
			c0.087-0.723,0.386-3.181,0.896-7.375c0.511-4.194,0.97-7.982,1.382-11.364c0.413-3.381,0.596-5.332,0.55-5.855
			c0-4.312-1.816-7.232-5.444-8.759c-0.455-0.179-1.339-0.336-2.654-0.472c-1.316-0.134-2.428-0.359-3.334-0.678
			c-0.908-0.317-1.361-0.793-1.361-1.429c0-1.178,1.226-1.769,3.675-1.769c0.905,0,2.858,0.068,5.853,0.204s5.896,0.204,8.711,0.204
			c2.177,0,4.512-0.089,7.008-0.272c2.494-0.181,4.061-0.272,4.695-0.272c1.994,0,2.994,0.68,2.994,2.042
			c0,0.728-0.902,1.293-2.704,1.701c-1.804,0.408-3.022,1.021-3.654,1.837c-1.895,2.271-3.246,7.581-4.057,15.932
			c-1.276,10.066-2.531,19.955-3.76,29.662c-1.229,9.708-2.146,16.942-2.751,21.705c-0.603,4.764-0.903,7.826-0.903,9.187
			c0,1,0.045,1.952,0.137,2.858c0.089,0.908,0.204,1.681,0.34,2.313c0.137,0.636,0.361,1.204,0.681,1.701
			c0.317,0.5,0.565,0.932,0.749,1.293c0.181,0.363,0.521,0.659,1.021,0.885c0.497,0.228,0.837,0.408,1.021,0.545
			c0.181,0.136,0.566,0.271,1.156,0.408c0.591,0.136,0.954,0.204,1.09,0.204s0.521,0.022,1.156,0.068
			c0.634,0.047,0.997,0.067,1.089,0.067c2.994,0.183,4.491,1,4.491,2.449c0,1.089-0.816,1.634-2.449,1.634
			c-1.725,0-3.994-0.204-6.805-0.613c-2.814-0.407-5.172-0.612-7.078-0.612c-2.632,0-5.171,0.184-7.621,0.545
			c-2.45,0.362-3.993,0.545-4.628,0.545c-2.904,0-4.354-0.592-4.354-1.77s0.863-1.858,2.592-2.042
			c0.999-0.089,1.909-0.408,2.728-0.952s1.457-1.042,1.912-1.497c0.455-0.453,0.84-1.27,1.159-2.447
			c0.318-1.179,0.522-1.95,0.615-2.313c0.09-0.362,0.227-1.271,0.409-2.723l0.264-2.164c2.529-18.063,3.794-27.868,3.794-29.412
			c0-0.997-0.251-1.61-0.753-1.837c-0.501-0.227-1.799-0.341-3.896-0.341c-0.547,0-2.324,0.023-5.332,0.067
			c-3.006,0.047-5.785,0.068-8.337,0.068H53.196c-1.55,0-2.439,0.143-2.667,0.428s-0.432,1.327-0.615,3.128l-0.92,6.898
			c-1.876,13.167-2.813,20.748-2.813,22.745c0,1.544,0.134,2.862,0.402,3.951s0.536,1.952,0.804,2.588
			c0.268,0.637,0.761,1.203,1.48,1.703s1.217,0.796,1.489,0.885c0.272,0.092,0.906,0.272,1.905,0.544
			c0.998,0.272,1.542,0.409,1.633,0.409c0.272,0.091,0.589,0.159,0.953,0.203c0.362,0.047,0.633,0.115,0.816,0.205
			c0.181,0.091,0.429,0.159,0.749,0.204c0.317,0.047,0.544,0.115,0.681,0.204c0.136,0.092,0.293,0.204,0.477,0.341
			c0.181,0.135,0.293,0.295,0.34,0.476c0.044,0.184,0.068,0.364,0.068,0.545c0,0.815-0.727,1.225-2.177,1.225
			c-1.816,0-4.027-0.045-6.639-0.137c-2.611-0.089-5.166-0.136-7.666-0.136c-0.982,0-2.711,0.114-5.187,0.341
			c-2.475,0.225-4.255,0.34-5.344,0.34C27.878,164.449,26.336,163.815,26.336,162.543z"/>
	</g>
</g>
</svg>
