<svg class="logo-condensed" version="1.1" xmlns="http://www.w3.org/2000/svg" xmlns:xlink="http://www.w3.org/1999/xlink" x="0px" y="0px"
	   width="256px" height="160.32px" viewBox="0 0 256 160.32" enable-background="new 0 0 256 160.32" xml:space="preserve">
  <g class="name" opacity="0.95">
	  <g class="name-first-line">
		  <path d="M0,65.219c0-0.413,0.147-0.723,0.443-0.931c0.295-0.206,0.649-0.324,1.063-0.354c0.413-0.029,0.944-0.191,1.595-0.487
			         c0.649-0.295,1.241-0.709,1.772-1.241c0.235-0.235,0.428-0.487,0.576-0.753c0.147-0.266,0.295-0.634,0.443-1.107
			         c0.147-0.473,0.28-0.931,0.399-1.374c0.118-0.443,0.231-1.103,0.34-1.984c0.108-0.879,0.211-1.7,0.305-2.462
			         c0.094-0.761,0.226-1.816,0.394-3.165c0.166-1.349,0.323-2.609,0.468-3.782c0.144-1.173,0.338-2.741,0.582-4.705
			         s0.475-3.826,0.693-5.585c0.405-3.281,0.891-7.209,1.458-11.781c0.567-4.572,1-8.061,1.297-10.464
			         c0.297-2.404,0.446-3.636,0.446-3.696c0-1.537-0.503-2.676-1.506-3.416c-1.005-0.739-2.26-1.198-3.766-1.375
			         C5.495,6.38,4.711,6.262,4.654,6.203C4.18,6.025,3.944,5.671,3.944,5.139c0-0.886,0.798-1.329,2.393-1.329
			         c0.649,0,1.859,0.104,3.628,0.31c1.77,0.208,3.582,0.311,5.438,0.311c1.39,0,3.013-0.103,4.865-0.311
			         c1.853-0.206,2.987-0.31,3.401-0.31c1.063,0,1.595,0.443,1.595,1.329c0,0.414-0.281,0.695-0.842,0.842
			         c-0.562,0.148-1.241,0.325-2.038,0.532c-0.797,0.208-1.374,0.516-1.728,0.929c-0.651,0.767-1.138,1.859-1.462,3.274
			         c-0.326,1.415-0.721,3.885-1.189,7.408c-0.468,3.524-0.881,6.636-1.239,9.336c-0.237,1.371-0.354,2.44-0.354,3.207
			         c0,0.438,0.074,0.713,0.222,0.822c0.146,0.111,0.427,0.165,0.837,0.165c0.707,0,1.793,0.014,3.262,0.042s4.496,0.054,9.082,0.082
			         c4.584,0.028,10.255,0.069,17.015,0.124h1.764c0.999,0,1.645-0.191,1.938-0.575c0.293-0.382,0.529-1.312,0.706-2.791
			         c0.057-0.471,0.252-2.071,0.584-4.802c0.332-2.73,0.631-5.198,0.9-7.399c0.269-2.201,0.388-3.471,0.357-3.812
			         c0-2.808-1.183-4.709-3.545-5.703c-0.296-0.116-0.872-0.219-1.728-0.307c-0.857-0.087-1.581-0.234-2.171-0.442
			         c-0.591-0.206-0.886-0.517-0.886-0.931c0-0.767,0.797-1.151,2.392-1.151c0.59,0,1.861,0.044,3.811,0.132
			         c1.949,0.089,3.839,0.133,5.671,0.133c1.417,0,2.938-0.058,4.563-0.177c1.624-0.118,2.643-0.177,3.057-0.177
			         c1.298,0,1.949,0.443,1.949,1.329c0,0.474-0.587,0.842-1.761,1.107C63.258,6.602,62.465,7,62.054,7.532
			         c-1.233,1.479-2.114,4.936-2.642,10.373c-0.831,6.554-1.648,12.993-2.448,19.313c-0.8,6.321-1.397,11.031-1.79,14.132
			         c-0.394,3.102-0.589,5.095-0.589,5.981c0,0.651,0.029,1.271,0.089,1.861c0.058,0.591,0.133,1.094,0.222,1.507
			         c0.089,0.414,0.235,0.783,0.443,1.107c0.207,0.325,0.368,0.606,0.487,0.842c0.118,0.237,0.339,0.429,0.665,0.576
			         c0.324,0.148,0.546,0.266,0.665,0.354c0.117,0.088,0.368,0.177,0.753,0.266c0.384,0.088,0.621,0.133,0.709,0.133
			         s0.339,0.015,0.753,0.044c0.413,0.03,0.649,0.044,0.709,0.044c1.95,0.119,2.924,0.65,2.924,1.595c0,0.709-0.532,1.063-1.595,1.063
			         c-1.123,0-2.601-0.133-4.431-0.399c-1.832-0.266-3.368-0.399-4.608-0.399c-1.714,0-3.367,0.119-4.962,0.354
			         s-2.6,0.354-3.013,0.354c-1.891,0-2.835-0.385-2.835-1.152s0.562-1.21,1.688-1.329c0.651-0.058,1.243-0.266,1.776-0.62
			         c0.533-0.354,0.948-0.679,1.245-0.975c0.296-0.295,0.547-0.827,0.755-1.594s0.34-1.27,0.4-1.506
			         c0.06-0.235,0.148-0.827,0.267-1.772l0.172-1.41c1.646-11.76,2.47-18.145,2.47-19.15c0-0.649-0.164-1.048-0.49-1.196
			         c-0.327-0.147-1.171-0.222-2.537-0.222c-0.356,0-1.513,0.016-3.471,0.044c-1.958,0.03-3.768,0.044-5.429,0.044H17.489
			         c-1.009,0-1.588,0.093-1.736,0.278c-0.148,0.186-0.281,0.864-0.4,2.037l-0.6,4.492c-1.221,8.573-1.832,13.509-1.832,14.809
			         c0,1.005,0.087,1.864,0.262,2.573c0.174,0.709,0.349,1.271,0.523,1.685c0.174,0.414,0.496,0.784,0.963,1.109
			         c0.468,0.326,0.792,0.518,0.969,0.576c0.177,0.06,0.59,0.177,1.241,0.354c0.649,0.178,1.004,0.266,1.063,0.266
			         c0.178,0.06,0.384,0.104,0.621,0.133c0.235,0.03,0.413,0.075,0.532,0.133c0.118,0.059,0.279,0.104,0.487,0.132
			         c0.207,0.031,0.354,0.075,0.443,0.133c0.089,0.06,0.191,0.133,0.311,0.221c0.118,0.089,0.191,0.193,0.221,0.311
			         c0.029,0.119,0.044,0.237,0.044,0.354c0,0.531-0.474,0.797-1.418,0.797c-1.182,0-2.622-0.029-4.323-0.088
			         c-1.7-0.059-3.363-0.089-4.991-0.089c-0.64,0-1.766,0.075-3.377,0.222c-1.611,0.146-2.771,0.222-3.479,0.222
			         C1.004,66.459,0,66.046,0,65.219z"/>
		  <path d="M66.813,51.218c0-6.025,1.963-11.46,5.893-16.305c3.928-4.843,9.15-7.266,15.668-7.266c4.012,0,7.079,1.492,9.199,4.475
			         c2.119,2.984,3.179,6.721,3.179,11.209c0,3.841-0.732,7.532-2.194,11.077c-1.462,3.544-3.743,6.543-6.84,8.994
			         c-3.098,2.452-6.653,3.678-10.667,3.678c-4.096,0-7.492-1.358-10.19-4.076C68.162,60.287,66.813,56.357,66.813,51.218z
			         M74.345,51.306c0,4.254,0.72,7.503,2.162,9.748c1.44,2.246,3.279,3.368,5.513,3.368c2.235,0,4.22-0.798,5.957-2.393
			         c1.735-1.595,3.059-3.589,3.97-5.981c0.911-2.393,1.603-4.785,2.074-7.178s0.706-4.593,0.706-6.602
			         c0-3.957-0.721-6.941-2.161-8.95c-1.441-2.008-3.25-3.013-5.426-3.013c-2.236,0-4.383,0.99-6.441,2.969
			         c-2.059,1.98-3.589,4.683-4.588,8.108C74.933,45.518,74.345,48.825,74.345,51.306z"/>
		  <path d="M105.856,58.573c0-1.476,0.179-3.489,0.536-6.04c0.357-2.549,0.699-4.981,1.023-7.297
			         c0.324-2.314,0.495-3.532,0.511-3.649c0.23-1.64,0.629-4.482,1.196-8.528c0.568-4.044,0.987-7.034,1.259-8.968
			         c1.945-11.985,2.919-18.184,2.919-18.598c0-1.181-0.713-1.772-2.138-1.772c-0.481,0-0.946,0.015-1.395,0.044
			         c-0.45,0.03-0.854,0.044-1.214,0.044c-1.739,0-2.608-0.413-2.608-1.241c0-0.767,0.449-1.181,1.349-1.24
			         c2.398-0.177,4.566-0.443,6.503-0.797C115.733,0.177,117.006,0,117.615,0c1.14,0,1.71,0.473,1.71,1.417
			         c0,0.474-0.105,1.146-0.313,2.021c-0.208,0.874-0.335,1.543-0.38,2.009c-0.695,5.042-1.219,8.852-1.573,11.431
			         c-0.354,2.579-0.764,5.555-1.227,8.925c-0.462,3.371-1.041,7.578-1.733,12.618c-1.479,11.894-2.217,18.255-2.217,19.083
			         c0,1.48,0.087,2.427,0.263,2.841c0.176,0.414,0.556,0.62,1.142,0.62c1.113,0,2.109-0.324,2.988-0.975
			         c0.878-0.649,1.537-1.374,1.978-2.171c0.438-0.798,0.937-1.521,1.494-2.171c0.557-0.649,1.069-0.975,1.537-0.975
			         c0.703,0,1.055,0.474,1.055,1.417c0,0.828-1.477,2.955-4.431,6.38c-1.063,1.24-2.378,2.29-3.943,3.146
			         c-1.566,0.856-2.822,1.285-3.766,1.285c-0.651,0-1.152-0.06-1.506-0.177c-0.354-0.119-0.784-0.399-1.285-0.842
			         c-0.502-0.443-0.886-1.285-1.152-2.525C105.989,62.117,105.856,60.522,105.856,58.573z"/>
		  <path d="M126.936,58.573c0-1.476,0.179-3.489,0.536-6.04c0.357-2.549,0.699-4.981,1.023-7.297
			         c0.324-2.314,0.495-3.532,0.511-3.649c0.23-1.64,0.628-4.482,1.196-8.528c0.568-4.044,0.987-7.034,1.259-8.968
			         c1.945-11.985,2.918-18.184,2.918-18.598c0-1.181-0.713-1.772-2.138-1.772c-0.48,0-0.946,0.015-1.394,0.044
			         c-0.45,0.03-0.854,0.044-1.214,0.044c-1.739,0-2.608-0.413-2.608-1.241c0-0.767,0.449-1.181,1.349-1.24
			         c2.398-0.177,4.566-0.443,6.503-0.797S138.086,0,138.695,0c1.14,0,1.71,0.473,1.71,1.417c0,0.474-0.105,1.146-0.313,2.021
			         c-0.208,0.874-0.335,1.543-0.381,2.009c-0.695,5.042-1.218,8.852-1.573,11.431c-0.354,2.579-0.764,5.555-1.227,8.925
			         c-0.462,3.371-1.042,7.578-1.733,12.618c-1.479,11.894-2.217,18.255-2.217,19.083c0,1.48,0.087,2.427,0.263,2.841
			         c0.176,0.414,0.556,0.62,1.142,0.62c1.113,0,2.108-0.324,2.988-0.975c0.878-0.649,1.537-1.374,1.978-2.171
			         c0.438-0.798,0.937-1.521,1.494-2.171c0.557-0.649,1.069-0.975,1.537-0.975c0.704,0,1.056,0.474,1.056,1.417
			         c0,0.828-1.478,2.955-4.431,6.38c-1.063,1.24-2.378,2.29-3.943,3.146c-1.566,0.856-2.822,1.285-3.766,1.285
			         c-0.651,0-1.152-0.06-1.506-0.177c-0.354-0.119-0.784-0.399-1.285-0.842c-0.502-0.443-0.886-1.285-1.152-2.525
			         C127.068,62.117,126.936,60.522,126.936,58.573z"/>
		  <path d="M141.937,77.27c0-0.769,0.28-1.448,0.842-2.038c0.562-0.591,1.226-0.886,1.994-0.886c1.121,0,2.333,0.487,3.633,1.462
			         c1.299,0.975,2.658,1.462,4.076,1.462c2.305,0,4.711-1.936,7.222-5.804c2.511-3.87,3.767-6.837,3.767-8.905
			         c0-2.894-1.876-8.255-5.627-16.083c-3.752-7.827-6.69-11.741-8.816-11.741c-1.478,0-2.526,0.547-3.146,1.64
			         c-0.62,1.094-1.063,2.201-1.329,3.323c-0.266,1.123-0.753,1.684-1.462,1.684c-0.592,0-0.886-0.649-0.886-1.949
			         c0-1.476,0.206-3.027,0.62-4.652c0.413-1.624,1.197-3.16,2.348-4.608c1.152-1.447,2.555-2.171,4.209-2.171
			         c1.95,0,4.032,1.315,6.248,3.943c2.215,2.629,4.089,5.509,5.626,8.64c1.536,3.132,2.894,6.012,4.076,8.64
			         c1.182,2.629,1.861,3.943,2.039,3.943c0.59,0,1.27-1.831,2.038-5.494c0.767-3.662,1.151-6.97,1.151-9.924
			         c0-0.886-0.369-2.039-1.107-3.456c-0.739-1.418-1.108-2.51-1.108-3.279c0-0.886,0.251-1.653,0.754-2.304
			         c0.501-0.649,1.254-0.975,2.26-0.975c1.004,0,1.83,0.443,2.481,1.33c0.649,0.886,0.975,2.009,0.975,3.367
			         c0,2.481-0.636,6.513-1.905,12.096c-1.271,5.583-3.088,11.357-5.45,17.323c-5.436,13.764-11.49,20.647-18.166,20.647
			         C144.388,82.498,141.937,80.755,141.937,77.27z"/>
	  </g>
	  <g class="name-second-line">
		  <path d="M11.77,134.742c0-0.413,0.147-0.723,0.443-0.93c0.295-0.207,0.649-0.324,1.063-0.355c0.413-0.029,0.944-0.191,1.595-0.487
			         c0.649-0.295,1.241-0.708,1.772-1.24c0.235-0.235,0.428-0.488,0.576-0.753c0.147-0.266,0.295-0.634,0.443-1.108
			         c0.147-0.472,0.279-0.93,0.398-1.373c0.118-0.443,0.231-1.104,0.341-1.984c0.108-0.879,0.21-1.7,0.305-2.461
			         c0.094-0.762,0.226-1.817,0.393-3.165c0.166-1.349,0.323-2.609,0.468-3.782c0.144-1.172,0.337-2.741,0.582-4.705
			         c0.243-1.963,0.475-3.826,0.693-5.585c0.404-3.281,0.89-7.209,1.458-11.782c0.568-4.572,1-8.061,1.297-10.464
			         c0.296-2.404,0.446-3.636,0.446-3.696c0-1.537-0.502-2.676-1.506-3.416c-1.005-0.739-2.26-1.197-3.766-1.375
			         c-1.506-0.177-2.29-0.295-2.348-0.354c-0.474-0.178-0.709-0.532-0.709-1.063c0-0.886,0.797-1.33,2.393-1.33
			         c0.649,0,1.859,0.104,3.629,0.311c1.77,0.208,3.582,0.31,5.437,0.31c1.39,0,3.013-0.103,4.866-0.31
			         c1.853-0.207,2.986-0.311,3.4-0.311c1.063,0,1.595,0.443,1.595,1.33c0,0.414-0.281,0.695-0.842,0.842
			         c-0.562,0.148-1.24,0.325-2.038,0.532c-0.798,0.208-1.374,0.516-1.729,0.929c-0.65,0.767-1.138,1.859-1.462,3.274
			         c-0.325,1.415-0.721,3.885-1.189,7.407c-0.468,3.524-0.88,6.636-1.239,9.336c-0.236,1.371-0.354,2.44-0.354,3.207
			         c0,0.439,0.074,0.713,0.222,0.823c0.147,0.111,0.427,0.165,0.838,0.165c0.706,0,1.793,0.014,3.262,0.042
			         c1.469,0.028,4.496,0.054,9.082,0.082c4.584,0.027,10.256,0.069,17.015,0.123h1.764c0.998,0,1.645-0.191,1.938-0.574
			         c0.293-0.383,0.529-1.312,0.707-2.792c0.057-0.471,0.251-2.071,0.584-4.801c0.332-2.73,0.631-5.197,0.9-7.399
			         c0.269-2.202,0.388-3.471,0.357-3.812c0-2.808-1.183-4.709-3.544-5.703c-0.296-0.117-0.873-0.219-1.728-0.308
			         c-0.857-0.087-1.581-0.234-2.171-0.442c-0.591-0.206-0.886-0.517-0.886-0.93c0-0.767,0.797-1.152,2.393-1.152
			         c0.59,0,1.861,0.044,3.81,0.133c1.95,0.089,3.839,0.133,5.671,0.133c1.418,0,2.938-0.058,4.563-0.177
			         c1.624-0.118,2.643-0.177,3.057-0.177c1.299,0,1.949,0.443,1.949,1.329c0,0.474-0.587,0.842-1.761,1.107
			         c-1.174,0.266-1.968,0.665-2.379,1.197c-1.233,1.479-2.114,4.936-2.642,10.374c-0.831,6.554-1.647,12.992-2.448,19.312
			         c-0.801,6.321-1.397,11.031-1.791,14.133s-0.588,5.095-0.588,5.981c0,0.65,0.029,1.271,0.088,1.861
			         c0.059,0.591,0.133,1.094,0.222,1.506c0.089,0.414,0.235,0.783,0.443,1.107c0.207,0.326,0.369,0.606,0.488,0.842
			         c0.118,0.237,0.339,0.429,0.665,0.576c0.324,0.148,0.545,0.266,0.665,0.355c0.118,0.088,0.368,0.177,0.753,0.266
			         c0.384,0.088,0.621,0.132,0.709,0.132c0.089,0,0.339,0.015,0.753,0.044c0.413,0.031,0.649,0.044,0.709,0.044
			         c1.949,0.119,2.924,0.651,2.924,1.595c0,0.709-0.531,1.064-1.595,1.064c-1.123,0-2.601-0.133-4.431-0.399
			         c-1.832-0.265-3.367-0.398-4.608-0.398c-1.714,0-3.367,0.119-4.962,0.354s-2.6,0.354-3.013,0.354
			         c-1.892,0-2.835-0.385-2.835-1.152c0-0.767,0.562-1.209,1.688-1.329c0.651-0.058,1.243-0.266,1.776-0.62s0.948-0.678,1.245-0.975
			         c0.296-0.295,0.547-0.826,0.754-1.593s0.34-1.27,0.4-1.506c0.059-0.235,0.148-0.827,0.267-1.772l0.171-1.409
			         c1.646-11.761,2.47-18.145,2.47-19.15c0-0.649-0.164-1.048-0.49-1.196c-0.327-0.147-1.171-0.222-2.536-0.222
			         c-0.356,0-1.514,0.015-3.472,0.044c-1.958,0.031-3.767,0.044-5.429,0.044H29.258c-1.009,0-1.588,0.093-1.736,0.279
			         c-0.148,0.185-0.281,0.863-0.4,2.036l-0.599,4.492c-1.222,8.573-1.832,13.509-1.832,14.81c0,1.005,0.087,1.863,0.262,2.572
			         c0.175,0.709,0.349,1.271,0.523,1.685c0.174,0.414,0.496,0.784,0.964,1.109c0.468,0.325,0.792,0.518,0.969,0.576
			         c0.177,0.06,0.59,0.177,1.241,0.354c0.649,0.177,1.004,0.266,1.063,0.266c0.177,0.06,0.383,0.104,0.62,0.133
			         c0.236,0.031,0.413,0.075,0.532,0.133c0.118,0.06,0.28,0.104,0.487,0.133c0.207,0.03,0.354,0.075,0.443,0.133
			         c0.089,0.059,0.191,0.133,0.311,0.221c0.118,0.088,0.191,0.192,0.222,0.31c0.029,0.119,0.044,0.237,0.044,0.354
			         c0,0.532-0.473,0.797-1.417,0.797c-1.183,0-2.623-0.029-4.323-0.089c-1.7-0.058-3.363-0.088-4.992-0.088
			         c-0.639,0-1.765,0.074-3.377,0.221c-1.611,0.146-2.771,0.222-3.479,0.222C12.773,135.983,11.77,135.57,11.77,134.742z"/>
		  <path d="M79.442,125.615c0-4.312,1.654-9.127,4.963-14.444c3.544-5.552,7.532-9.393,11.962-11.52
			         c2.185-1.063,4.342-1.595,6.469-1.595c0.886,0,2.111,0.163,3.677,0.487c1.564,0.326,2.85,0.488,3.854,0.488
			         c0.59,0,1.358-0.723,2.304-2.171c0.944-1.447,1.713-2.171,2.304-2.171c0.649,0,0.975,0.443,0.975,1.329
			         c0,0.532-0.252,1.506-0.753,2.924c-0.502,1.418-0.842,2.481-1.019,3.19c-0.06,0.236-0.739,4.018-2.038,11.342
			         c-1.063,5.849-1.595,9.629-1.595,11.342c0,1.241,0.294,2.423,0.886,3.544c0.59,1.124,1.299,1.684,2.127,1.684
			         c1.063,0,2.289-0.96,3.677-2.88c1.387-1.919,2.318-2.88,2.792-2.88c0.531,0,0.797,0.326,0.797,0.975
			         c0,1.063-0.532,2.334-1.595,3.81c-1.24,1.832-2.702,3.5-4.386,5.007c-1.684,1.507-3.087,2.259-4.209,2.259
			         c-1.654,0-2.895-0.827-3.722-2.481c-0.828-1.653-1.315-3.308-1.462-4.962c-0.148-1.653-0.252-2.481-0.311-2.481
			         c-0.06,0-0.398,0.37-1.019,1.108c-0.621,0.739-1.449,1.625-2.481,2.658c-1.035,1.034-2.186,2.069-3.456,3.102
			         c-1.271,1.034-2.733,1.92-4.386,2.658c-1.654,0.738-3.279,1.108-4.874,1.108c-3.781,0-6.307-1.019-7.577-3.057
			         C80.077,131.951,79.442,129.16,79.442,125.615z M85.468,125.083c0,2.126,0.665,3.841,1.994,5.14c1.33,1.3,2.969,1.949,4.918,1.949
			         c2.716,0,5.095-0.931,7.133-2.791c2.039-1.861,3.441-3.589,4.209-5.184c0.649-1.24,1.343-3.603,2.082-7.089
			         c0.738-3.485,1.329-6.586,1.772-9.304c0.443-2.717,0.665-4.194,0.665-4.431c0-1.063-0.651-1.846-1.95-2.348
			         c-1.3-0.501-2.6-0.753-3.899-0.753c-1.891,0-3.87,0.651-5.937,1.949c-2.069,1.3-3.752,3.043-5.051,5.229
			         c-3.072,5.082-4.904,9.364-5.494,12.849C85.615,122.071,85.468,123.666,85.468,125.083z"/>
		  <path d="M121.32,109.487c0-1.89,0.269-3.602,0.807-5.139c0.538-1.536,1.181-2.716,1.929-3.544c0.748-0.827,1.54-1.536,2.377-2.127
			         c0.836-0.589,1.54-0.974,2.107-1.152c0.567-0.177,0.972-0.266,1.211-0.266c1.483,0,2.626,1.034,3.43,3.102
			         c1.484,3.898,2.316,5.848,2.493,5.848c0.058,0,0.621-0.753,1.684-2.26c1.063-1.506,2.495-3.026,4.297-4.563
			         c1.801-1.536,3.677-2.304,5.627-2.304c1.063,0,1.875,0.282,2.437,0.842c0.561,0.562,0.842,1.196,0.842,1.905
			         c0,0.474-0.163,1.123-0.487,1.949c-0.326,0.828-0.487,1.271-0.487,1.329l-0.089,0.709c-0.119,0.532-0.236,0.946-0.354,1.24
			         c-0.118,0.297-0.31,0.607-0.575,0.931c-0.267,0.326-0.576,0.488-0.932,0.488c-0.531,0-0.974-0.311-1.329-0.931
			         c-0.354-0.62-0.797-1.24-1.329-1.861c-0.531-0.621-1.24-0.93-2.126-0.93c-1.714,0-3.161,1.772-4.342,5.316
			         c-1.182,3.545-1.95,6.883-2.304,10.014l-0.443,2.924c-1.063,8.33-1.832,12.968-2.304,13.912c-0.619,0.769-1.546,1.152-2.781,1.152
			         h-0.462c-1.855,0-2.782-0.767-2.782-2.304c0-0.944,0.663-4.431,1.992-10.457c1.33-6.025,1.994-10.279,1.994-12.76
			         c0-4.017-1.051-6.026-3.151-6.026c-1.072,0-1.965,0.429-2.679,1.285c-0.714,0.857-1.25,1.832-1.607,2.924
			         c-0.357,1.094-0.566,1.67-0.625,1.728c-0.354,0.354-0.68,0.532-0.975,0.532C121.675,110.994,121.32,110.493,121.32,109.487z"/>
		  <path d="M150.039,151.933c0-0.828,0.604-1.506,1.816-2.038c1.21-0.532,1.904-1.063,2.082-1.596
			         c0.118-0.296,0.295-1.447,0.532-3.455c3.395-24.739,5.438-38.67,6.13-41.792l0.025-0.177c0-0.377-0.148-0.565-0.442-0.565
			         c-0.297,0-1.035,0.266-2.216,0.797c-1.183,0.532-1.95,0.798-2.304,0.798c-0.769,0-1.151-0.355-1.151-1.064v-0.354
			         c0-0.532,0.205-0.915,0.619-1.152c0.71-0.295,1.403-0.561,2.083-0.797c0.678-0.235,1.21-0.428,1.595-0.577
			         c0.384-0.146,0.738-0.25,1.063-0.31c0.324-0.058,0.565-0.177,0.72-0.355c0.155-0.177,0.288-0.265,0.399-0.265
			         c0.11,0,0.189-0.147,0.233-0.443c0.045-0.295,0.078-0.487,0.1-0.576c0.022-0.088,0.069-0.381,0.141-0.876
			         c0.073-0.496,0.137-0.917,0.189-1.27c0.135-0.933,0.3-2.056,0.494-3.372c0.192-1.313,0.332-2.193,0.419-2.636
			         c0.088-0.443,0.232-0.975,0.437-1.595c0.203-0.62,0.466-1.077,0.785-1.374c0.319-0.295,0.742-0.59,1.266-0.886
			         c0.813-0.413,1.657-0.62,2.529-0.62c0.814,0,1.222,0.502,1.222,1.506c0,0.886-0.394,2.66-1.179,5.318s-1.178,4.402-1.178,5.229
			         v0.354c0,0.297,0.146,0.443,0.437,0.443c0.116,0,0.479-0.044,1.091-0.133c0.61-0.089,1.467-0.162,2.571-0.222
			         c1.105-0.058,2.355-0.089,3.751-0.089c10.292,0,15.438,3.959,15.438,11.875c0,4.904-1.073,9.304-3.22,13.203
			         c-0.11,0.236-0.317,0.636-0.618,1.196c-0.304,0.562-0.523,0.946-0.661,1.152c-0.139,0.208-0.345,0.562-0.618,1.063
			         c-0.276,0.502-0.518,0.886-0.723,1.152c-0.206,0.266-0.502,0.621-0.884,1.063c-0.384,0.443-0.752,0.828-1.105,1.152
			         c-0.354,0.325-0.78,0.695-1.281,1.107c-0.501,0.414-1.047,0.829-1.637,1.241c-3.479,2.481-7.367,3.721-11.671,3.721
			         c-0.472,0-1.281-0.058-2.431-0.177c-1.149-0.118-1.931-0.177-2.344-0.177c-0.531,0-0.87,0.147-1.018,0.441
			         c-0.146,0.293-0.308,1.148-0.485,2.563c-0.134,0.936-0.235,1.697-0.302,2.283c-0.086,0.644-0.198,1.493-0.338,2.549
			         c-0.14,1.053-0.255,1.917-0.344,2.591c-0.089,0.672-0.133,1.128-0.133,1.364c0,1.296,0.62,2.196,1.861,2.698
			         c1.24,0.5,2.466,0.839,3.677,1.019c1.211,0.176,1.816,0.529,1.816,1.062c0,0.767-0.413,1.152-1.24,1.152
			         c-1.063,0-2.617-0.016-4.66-0.045c-2.043-0.03-3.452-0.044-4.228-0.044c-0.716,0-1.622,0.014-2.721,0.044
			         c-1.098,0.029-1.794,0.045-2.089,0.045h-0.798C150.54,153.085,150.039,152.7,150.039,151.933z M162.105,131.198
			         c0,0.237,0.118,0.503,0.354,0.798c0.235,0.296,0.77,0.591,1.601,0.886c0.83,0.296,1.872,0.443,3.123,0.443
			         c4.229,0,8.041-2.318,11.436-6.957c3.395-4.637,5.093-9.112,5.093-13.424c0-2.304-0.43-4.298-1.286-5.981
			         c-0.857-1.684-1.862-2.953-3.015-3.811c-1.153-0.855-2.498-1.536-4.034-2.038c-1.537-0.501-2.795-0.811-3.77-0.931
			         c-0.977-0.118-1.906-0.177-2.792-0.177c-0.533,0-0.991,0.044-1.376,0.133c-0.384,0.088-0.635,0.133-0.753,0.133
			         c-0.474,0-0.976,2.275-1.507,6.822l-1.302,9.84C162.695,125.793,162.105,130.548,162.105,131.198z"/>
		  <path d="M193.467,122.691c0-3.722,0.886-7.413,2.658-11.076c1.772-3.663,4.223-6.941,7.355-9.836
			         c3.308-3.13,7.413-4.697,12.316-4.697c2.103,0,3.897,0.621,5.388,1.861c1.488,1.24,2.233,2.807,2.233,4.696
			         c0,1.478-0.354,2.88-1.06,4.209c-0.706,1.329-1.589,2.437-2.648,3.323s-1.985,1.581-2.78,2.082
			         c-0.795,0.503-1.486,0.872-2.074,1.108c-3.413,1.537-8.031,2.334-13.856,2.393c-1.005,0-1.507,1.212-1.507,3.633
			         c0,3.427,1.063,6.13,3.19,8.108c2.127,1.98,5.316,2.968,9.569,2.968c1.477,0,2.938-0.324,4.388-0.974
			         c1.446-0.65,2.627-1.286,3.544-1.906c0.915-0.62,1.462-0.931,1.639-0.931c0.709,0,1.063,0.297,1.063,0.886
			         c0,1.241-1.698,2.924-5.095,5.051c-3.397,2.126-6.839,3.19-10.323,3.19c-5.259,0-8.906-1.24-10.944-3.722
			         C194.486,130.577,193.467,127.122,193.467,122.691z M200.732,113.475c0,1.183,0.267,1.772,0.798,1.772
			         c4.194,0,7.887-1.181,11.077-3.544c3.189-2.362,4.784-4.962,4.784-7.797c0-1.476-0.517-2.54-1.55-3.19
			         c-1.035-0.649-2.083-0.975-3.146-0.975c-2.186,0-4.607,1.389-7.266,4.165c-1.183,1.24-2.26,2.955-3.234,5.139
			         C201.221,111.231,200.732,112.708,200.732,113.475z"/>
		  <path d="M226.758,109.487c0-1.89,0.269-3.602,0.807-5.139c0.538-1.536,1.182-2.716,1.93-3.544
			         c0.747-0.827,1.539-1.536,2.376-2.127c0.837-0.589,1.541-0.974,2.108-1.152c0.567-0.177,0.972-0.266,1.212-0.266
			         c1.482,0,2.626,1.034,3.429,3.102c1.484,3.898,2.317,5.848,2.493,5.848c0.06,0,0.621-0.753,1.685-2.26
			         c1.062-1.506,2.495-3.026,4.297-4.563c1.802-1.536,3.678-2.304,5.627-2.304c1.064,0,1.875,0.282,2.438,0.842
			         c0.561,0.562,0.842,1.196,0.842,1.905c0,0.474-0.164,1.123-0.488,1.949c-0.325,0.828-0.486,1.271-0.486,1.329l-0.089,0.709
			         c-0.119,0.532-0.237,0.946-0.354,1.24c-0.119,0.297-0.311,0.607-0.576,0.931c-0.267,0.326-0.576,0.488-0.931,0.488
			         c-0.531,0-0.975-0.311-1.329-0.931s-0.798-1.24-1.329-1.861s-1.24-0.93-2.127-0.93c-1.713,0-3.16,1.772-4.342,5.316
			         c-1.183,3.545-1.949,6.883-2.304,10.014l-0.443,2.924c-1.062,8.33-1.831,12.968-2.304,13.912
			         c-0.618,0.769-1.546,1.152-2.781,1.152h-0.462c-1.855,0-2.782-0.767-2.782-2.304c0-0.944,0.663-4.431,1.992-10.457
			         c1.33-6.025,1.994-10.279,1.994-12.76c0-4.017-1.051-6.026-3.151-6.026c-1.071,0-1.965,0.429-2.68,1.285
			         c-0.715,0.857-1.25,1.832-1.607,2.924c-0.356,1.094-0.566,1.67-0.624,1.728c-0.354,0.354-0.68,0.532-0.976,0.532
			         C227.112,110.994,226.758,110.493,226.758,109.487z"/>
	  </g>
  </g>
	<g class="subtext" opacity="0.67">
		<path d="M19.954,146.442c0-0.2,0.161-0.381,0.381-0.381h5.744c2.41,0,4.378,1.928,4.378,4.317c0,1.848-1.225,3.354-2.972,4.057
			       l2.751,5.102c0.14,0.262,0,0.582-0.342,0.582h-2.108c-0.181,0-0.281-0.101-0.321-0.181l-2.671-5.321h-2.229v5.121
			       c0,0.2-0.181,0.381-0.382,0.381h-1.848c-0.221,0-0.381-0.181-0.381-0.381V146.442z M25.858,152.467
			       c1.064,0,1.988-0.924,1.988-2.049c0-1.064-0.924-1.948-1.988-1.948h-3.273v3.997H25.858z"/>
		<path d="M33.662,146.442c0-0.2,0.161-0.381,0.381-0.381h8.174c0.221,0,0.381,0.181,0.381,0.381v1.647
			       c0,0.2-0.161,0.381-0.381,0.381h-5.945v3.294h4.96c0.201,0,0.381,0.181,0.381,0.382v1.667c0,0.221-0.18,0.382-0.381,0.382h-4.96
			       v3.515h5.945c0.221,0,0.381,0.18,0.381,0.381v1.647c0,0.2-0.161,0.381-0.381,0.381h-8.174c-0.221,0-0.381-0.181-0.381-0.381
			       V146.442z"/>
		<path d="M44.444,159.597l6.246-13.517c0.061-0.12,0.161-0.221,0.342-0.221h0.201c0.201,0,0.281,0.101,0.341,0.221l6.186,13.517
			       c0.121,0.261-0.04,0.521-0.341,0.521H55.67c-0.301,0-0.442-0.12-0.583-0.401l-0.984-2.169h-6.005l-0.984,2.169
			       c-0.08,0.201-0.261,0.401-0.582,0.401h-1.748C44.484,160.119,44.323,159.858,44.444,159.597z M53.12,155.319l-2.009-4.418h-0.06
			       l-1.968,4.418H53.12z"/>
		<path d="M59.982,146.442c0-0.2,0.161-0.381,0.381-0.381h1.848c0.201,0,0.382,0.181,0.382,0.381v11.268h5.121
			       c0.221,0,0.381,0.18,0.381,0.381v1.647c0,0.2-0.161,0.381-0.381,0.381h-7.351c-0.221,0-0.381-0.181-0.381-0.381V146.442z"/>
		<path d="M75.809,146.442c0-0.2,0.161-0.381,0.382-0.381h8.174c0.221,0,0.381,0.181,0.381,0.381v1.647
			       c0,0.2-0.161,0.381-0.381,0.381h-5.945v3.294h4.96c0.201,0,0.382,0.181,0.382,0.382v1.667c0,0.221-0.181,0.382-0.382,0.382h-4.96
			       v3.515h5.945c0.221,0,0.381,0.18,0.381,0.381v1.647c0,0.2-0.161,0.381-0.381,0.381H76.19c-0.221,0-0.382-0.181-0.382-0.381
			       V146.442z"/>
		<path d="M87.137,158.151l0.723-1.245c0.161-0.281,0.502-0.281,0.683-0.141c0.101,0.061,1.728,1.245,3.033,1.245
			       c1.044,0,1.828-0.683,1.828-1.547c0-1.023-0.864-1.727-2.551-2.409c-1.888-0.764-3.775-1.968-3.775-4.338
			       c0-1.787,1.326-3.856,4.519-3.856c2.049,0,3.615,1.045,4.017,1.346c0.201,0.12,0.261,0.462,0.121,0.663l-0.763,1.145
			       c-0.161,0.241-0.462,0.401-0.703,0.241c-0.161-0.101-1.687-1.105-2.792-1.105c-1.145,0-1.767,0.764-1.767,1.406
			       c0,0.944,0.743,1.587,2.37,2.249c1.948,0.784,4.198,1.948,4.198,4.539c0,2.069-1.788,3.977-4.619,3.977
			       c-2.531,0-4.017-1.186-4.418-1.566C87.057,158.573,86.956,158.472,87.137,158.151z"/>
		<path d="M101.285,148.47h-3.073c-0.221,0-0.382-0.181-0.382-0.381v-1.647c0-0.2,0.161-0.381,0.382-0.381h8.776
			       c0.221,0,0.382,0.181,0.382,0.381v1.647c0,0.2-0.161,0.381-0.382,0.381h-3.073v11.268c0,0.2-0.181,0.381-0.381,0.381h-1.868
			       c-0.201,0-0.381-0.181-0.381-0.381V148.47z"/>
		<path d="M107.037,159.597l6.246-13.517c0.06-0.12,0.161-0.221,0.341-0.221h0.201c0.201,0,0.281,0.101,0.341,0.221l6.186,13.517
			       c0.121,0.261-0.04,0.521-0.341,0.521h-1.748c-0.301,0-0.441-0.12-0.582-0.401l-0.984-2.169h-6.005l-0.984,2.169
			       c-0.08,0.201-0.261,0.401-0.583,0.401h-1.747C107.078,160.119,106.917,159.858,107.037,159.597z M115.713,155.319l-2.008-4.418
			       h-0.06l-1.969,4.418H115.713z"/>
		<path d="M123.475,148.47h-3.073c-0.221,0-0.382-0.181-0.382-0.381v-1.647c0-0.2,0.161-0.381,0.382-0.381h8.776
			       c0.221,0,0.381,0.181,0.381,0.381v1.647c0,0.2-0.161,0.381-0.381,0.381h-3.073v11.268c0,0.2-0.181,0.381-0.381,0.381h-1.868
			       c-0.201,0-0.381-0.181-0.381-0.381V148.47z"/>
		<path d="M131.877,146.442c0-0.2,0.161-0.381,0.381-0.381h8.174c0.221,0,0.382,0.181,0.382,0.381v1.647
			       c0,0.2-0.161,0.381-0.382,0.381h-5.945v3.294h4.961c0.201,0,0.381,0.181,0.381,0.382v1.667c0,0.221-0.18,0.382-0.381,0.382h-4.961
			       v3.515h5.945c0.221,0,0.382,0.18,0.382,0.381v1.647c0,0.2-0.161,0.381-0.382,0.381h-8.174c-0.221,0-0.381-0.181-0.381-0.381
			       V146.442z"/>
	</g>
</svg>
