<svg class="logo-condensed-horizontal" version="1.1" xmlns="http://www.w3.org/2000/svg" xmlns:xlink="http://www.w3.org/1999/xlink"
     x="0px" y="0px" width="512px" height="139.06299px"
     viewBox="0 0 520 147"
     preserveAspectRatio="xMidYMid"
     enable-background="new 0 0 512 139.06299" xml:space="preserve">
  <g class="ampersand" opacity="0.33">
    <path d="M200.34277,53.31738c6.21289-5.34863,10.52734-5.69434,10.52734-7.76465c0-1.20703-1.20898-3.27832-1.20898-10.52539
	     C209.66113,9.83545,232.61035,0,245.89746,0c5.34863,0,18.46191,2.24316,18.46191,14.49463
	     c0,5.521-2.07031,12.07764-11.21582,12.07764c-1.55273,0-2.07129-0.51758-2.07129-1.20801
	     c0-1.72559,2.24414-4.6582,2.24414-7.93652c0-3.27881-4.31445-7.41992-10.52539-7.41992
	     c-19.49805,0-27.43555,17.59961-27.43555,29.33301c0,2.76074,1.03516,3.10645,2.07129,3.10645
	     c2.58691,0,6.72852-1.72656,12.42285-1.72656c9.66211,0,14.49414,5.86719,14.49414,11.56152
	     c0,5.69336-4.6582,11.21582-13.80371,11.21582c-12.76855,0-16.56445-11.90625-18.80859-11.90625
	     c-2.76074,0-13.97559,11.38867-13.97559,27.26367c0,18.46094,13.63184,40.37598,41.23828,40.37598
	     c21.56836,0,41.23926-16.91211,41.23926-35.02832c0-9.31738-5.52148-16.91016-15.52832-16.91016
	     c-7.76562,0-14.66699,5.00391-14.66699,13.80469c0,6.55664,4.6582,9.14453,7.07422,9.14453c4.6582,0,4.83008-3.7959,7.0752-3.7959
	     c0.8623,0,1.20703,0.86328,1.20703,1.55273c0,2.76074-3.79688,6.72949-9.83496,6.72949
	     c-10.17969,0-14.32129-11.04297-14.32129-16.21875c0-18.63672,20.1875-22.94922,42.10156-32.78516
	     c17.08105-7.5918,27.08887-15.70117,27.08887-28.12402c0-5.34912-4.6582-12.42383-13.45801-12.42383
	     c-2.76074,0-9.49121,1.38037-9.49121,8.97217c0,5.34912,8.11035,4.48584,8.11035,7.76514
	     c0,3.27734-1.55273,7.07422-8.11035,7.07422c-5.17578,0-8.1084-4.83203-8.1084-10.87012
	     c0-10.52637,10.87012-17.6001,19.49707-17.6001c10.00781,0,18.63574,8.97217,18.63574,19.67041
	     c0,28.64258-38.30566,37.09668-38.30566,40.7207c0,1.89746,10.35352,3.62402,10.35352,18.11719
	     c0,9.66309-3.62402,20.1875-11.56152,27.95312c-13.11328,13.11328-26.22656,19.3252-46.76074,19.3252
	     c-26.57227,0-47.62207-13.11426-47.62207-39.51367C183.60742,73.16016,192.75293,59.70117,200.34277,53.31738z M228.81543,58.14844
	     c3.44922,0,6.55664-2.58789,6.55664-5.86621c0-5.34961-6.21289-6.55762-8.80176-6.55762
	     c-3.62207,0-7.24512,2.24414-7.24512,4.65918C219.3252,52.7998,223.46582,58.14844,228.81543,58.14844z"/>
  </g>
  <g class="letters">
    <g class="jw" opacity="0.95">
      <path d="M54.81934,11.96826c3.10352,0,6.20605,0.42383,15.5166,0.42383c6.77051,0,10.29785-0.42383,12.13184-0.42383
	       c1.69141,0,1.97461,0.42383,1.97461,1.69336c0,2.25635-6.06641,1.97461-6.06641,6.62939
	       c0,4.37305,4.9375,13.11914,20.03125,47.67773c4.6543,10.7207,10.86133,26.2373,12.27148,26.2373
	       c0.84668,0,7.75781-15.5166,11.56641-25.24902c1.41211-3.66797,2.82227-4.9375,2.82227-7.61719
	       c0-1.83398-15.79883-38.36914-19.3252-42.31836c-2.82129-3.10352-4.37207-2.8208-6.34766-2.96191
	       c-5.64355-0.56445-5.64355-0.9873-5.64355-2.25781c0-1.8335,2.53906-1.97363,4.0918-1.97363
	       c3.10352,0,6.20605,0.56396,15.51562,0.56396c1.26953,0,5.78418-0.56396,9.31055-0.56396
	       c2.39844,0,4.23242,0.28125,4.23242,1.12793c0,2.11621-6.06641,2.53906-6.06641,7.19434
	       c0,3.10352,1.69336,6.48828,4.37305,12.55371c1.26953,2.82129,5.36035,14.24707,6.62988,14.24707
	       c1.55176,0,10.15723-24.12109,10.15723-26.94141c0-5.92529-8.46387-3.80908-8.46387-6.77197
	       c0-1.26953,1.12793-1.55127,3.10352-1.55127c1.97461,0,6.34668,0.28174,9.02734,0.28174h2.39746
	       c1.83398,0,3.80859-0.14014,7.47656-0.42285h1.26953c0.9873,0,1.83398,0.28271,1.83398,1.41064
	       c0,2.53906-4.09082,1.69238-6.34766,4.09033c-1.26953,1.27002-2.67969,3.38525-3.94922,6.48877
	       c-12.55469,29.9043-12.69629,29.34082-12.69629,32.16211c0,0.70508,16.36328,39.49609,18.76074,39.49609
	       c2.25781,0,31.1748-70.10645,31.1748-74.76172c0-6.62988-10.43848-3.80811-10.43848-7.19385
	       c0-1.26953,0.14062-1.40967,2.67969-1.40967c1.69336,0,3.9502,0.14014,8.88672,0.14014
	       c5.36133,0,5.64258-0.28174,12.55469-0.28174c1.55176,0,2.82129,0.28174,2.82129,1.9751
	       c0,2.25635-2.82129,1.97461-5.78418,4.93604c-2.39746,2.39844-3.10254,4.79688-5.5,10.15625
	       c-38.79199,86.89355-38.08691,87.03418-40.06152,87.03418c-1.55176,0-4.37305-7.89941-6.48926-12.55371
	       c-5.92383-13.68359-13.96387-33.71387-15.375-33.71387c-2.11621,0-17.91406,40.06152-18.19727,41.18945
	       c-1.41016,4.09082-1.55176,5.50195-2.96094,5.50195c-2.96289,0-6.63086-14.53027-19.4668-42.45898
	       C77.9541,51.32422,73.58105,39.89844,70.90039,33.26855c-9.7334-24.26221-19.88965-12.83691-19.88965-19.3252
	       C51.01074,12.10938,53.26758,11.96826,54.81934,11.96826z"/>
      <path d="M4.37305,125.94531c2.39844,0,2.96191,4.79492,8.18164,4.79492c5.6416,0,8.60449-4.65527,9.73242-11.00195
	       c1.26953-6.63086,1.83398-12.41406,1.83398-17.06836c0-3.38574-0.14062-17.06836-0.14062-17.34961
	       c0-9.59375-0.42383,0.14062-0.42383-48.10156c0-5.21973-0.14062-10.29785-0.56445-13.96484
	       c-0.56348-4.9375-6.77051-6.77148-10.71973-6.91211c-2.82129-0.14111-3.10352-1.83447-3.10352-2.54004
	       c0-1.26904,0.70508-2.39746,4.09082-2.39746c3.94922,0,8.04004,0.84668,15.93945,0.84668
	       c6.06543,0,2.53906-0.1416,11.42578-0.1416c0.9873,0,3.94922,0,3.94922,1.83398c0,1.26953-2.39746,2.25732-6.48828,3.94922
	       c-2.67969,0.98828-2.96191,5.21973-2.96191,9.5918v6.48926c0,68.27246-0.28223,61.50195-0.28223,68.27246
	       c0,22.00586-13.96484,36.81641-29.19922,36.81641C3.52637,139.0625,0,138.78125,0,133.70312
	       C0,130.88184,2.82129,125.94531,4.37305,125.94531z"/>
    </g>
    <g class="hh" opacity="0.95">
      <path d="M300.8877,11.4043c3.94922,0,8.04102,0.56396,15.94043,0.56396c6.06543,0,3.52637-0.28174,12.41309-0.28174
	       c0.9873,0,3.10254,0.1416,3.10254,1.9751c0,1.26953-0.42285,2.39795-4.93652,2.39795
	       c-4.37305,0-5.36035,12.13086-5.36035,17.63184v5.21973c0,6.06543-0.28223,10.15625-0.28223,12.97754
	       c0,4.7959,0.70508,5.50098,4.7959,5.50098c4.65527,0,2.39844-0.1416,23.13379-0.1416c3.10352,0,8.32227,0.1416,26.66016,0.2832
	       c1.41016,0,1.55273-0.84668,1.55273-19.60742v-7.61719c0-19.74805-11.84961-11.42578-11.84961-16.92773
	       c0-1.12793,2.11523-1.41064,5.50195-1.41064c3.38477,0,8.18164,0.28271,13.68164,0.28271
	       c3.38672,0,5.92578-0.28271,11.00391-0.28271c1.26953,0,3.24414,0.42383,3.24414,1.83447c0,1.8335-1.41016,1.8335-1.97461,1.8335
	       c-5.50195,0-8.04102,3.80908-8.04102,8.74561c-0.14062,13.54199-0.42383,23.55762-0.42383,34.27734
	       c0,6.77148-0.28125,13.54199-0.28125,21.15918v5.21875c0,7.61719,0.56445,9.02734,0.56445,12.97754
	       c0,8.32324,8.04102,10.01465,11.84766,10.43848c0.42383,0,1.69336,0.1416,1.69336,1.55176s-1.83398,1.55176-6.91211,1.55176
	       c-3.24414,0-6.76953-0.70508-10.86133-0.70508c-5.35938,0-6.62891,0.70508-13.25977,0.70508
	       c-3.66797,0-5.07812,0-5.07812-1.83398c0-2.67969,8.74609-1.97461,9.73242-7.33496
	       c0.70703-3.66699,0.98828-7.19434,0.98828-10.29785c0-2.82031,0.14258-5.36035,0.14258-7.61719
	       c0-5.21875,0.28125-11.00195,0.28125-17.34961c0-2.53906-0.98828-3.80859-8.88672-3.80859
	       c-3.66797,0-16.50391,0.42285-17.34961,0.42285c-11.70898,0-16.92871-0.42285-25.95605-0.42285
	       c-2.53906,0-3.52734,0.28125-3.52734,5.21875c0,6.77148-0.56348,11.84961-0.56348,17.35059v6.06543
	       c0,7.19336,0.42285,10.86133,6.62891,14.81055c0.70605,0.42383,3.10352,0.70605,6.06641,0.70605
	       c1.41211,0,2.67969,0.84668,2.67969,1.55176c0,2.25684-2.11523,2.53906-4.51367,2.53906
	       c-7.61719,0-7.05273-0.56445-11.70898-0.56445c-7.33398,0-10.15527,0.70508-15.2334,0.70508
	       c-5.7832,0-6.62988-0.9873-6.62988-2.11523c0-3.80859,8.32324,0.14062,10.43945-9.02832
	       c0.42188-2.25684,1.83301-21.01758,1.83301-37.66309v-8.04004c0-4.09082,0.14062-9.4502,0.14062-15.2334
	       c0-5.78418-0.14062-11.70898-0.8457-16.78711c-0.70605-5.07812-6.48926-7.47607-10.58008-7.47607
	       c-2.25684,0-2.96191-1.9751-2.96191-2.39795C296.93848,11.4043,299.05371,11.4043,300.8877,11.4043z"/>
      <path d="M410.0166,11.4043c3.94922,0,8.04004,0.56396,15.93945,0.56396c6.06543,0,3.52637-0.28174,12.41309-0.28174
	       c0.9873,0,3.10352,0.1416,3.10352,1.9751c0,1.26953-0.42383,2.39795-4.9375,2.39795
	       c-4.37305,0-5.35938,12.13086-5.35938,17.63184v5.21973c0,6.06543-0.2832,10.15625-0.2832,12.97754
	       c0,4.7959,0.70605,5.50098,4.79688,5.50098c4.6543,0,2.39746-0.1416,23.13379-0.1416c3.10254,0,8.32227,0.1416,26.65918,0.2832
	       c1.41113,0,1.55273-0.84668,1.55273-19.60742v-7.61719c0-19.74805-11.84961-11.42578-11.84961-16.92773
	       c0-1.12793,2.11621-1.41064,5.50195-1.41064c3.38477,0,8.18066,0.28271,13.68262,0.28271
	       c3.38477,0,5.9248-0.28271,11.00293-0.28271c1.26953,0,3.24414,0.42383,3.24414,1.83447c0,1.8335-1.41113,1.8335-1.97461,1.8335
	       c-5.50195,0-8.04102,3.80908-8.04102,8.74561c-0.1416,13.54199-0.42285,23.55762-0.42285,34.27734
	       c0,6.77148-0.28223,13.54199-0.28223,21.15918v5.21875c0,7.61719,0.56348,9.02734,0.56348,12.97754
	       c0,8.32324,8.04102,10.01465,11.84961,10.43848c0.42285,0,1.69238,0.1416,1.69238,1.55176s-1.83398,1.55176-6.91211,1.55176
	       c-3.24414,0-6.76953-0.70508-10.86133-0.70508c-5.36035,0-6.62988,0.70508-13.25977,0.70508
	       c-3.66699,0-5.07812,0-5.07812-1.83398c0-2.67969,8.74609-1.97461,9.7334-7.33496
	       c0.70508-3.66699,0.9873-7.19434,0.9873-10.29785c0-2.82031,0.14062-5.36035,0.14062-7.61719
	       c0-5.21875,0.2832-11.00195,0.2832-17.34961c0-2.53906-0.9873-3.80859-8.88672-3.80859
	       c-3.66797,0-16.50488,0.42285-17.35059,0.42285c-11.70801,0-16.92676-0.42285-25.95508-0.42285
	       c-2.53906,0-3.52637,0.28125-3.52637,5.21875c0,6.77148-0.56445,11.84961-0.56445,17.35059v6.06543
	       c0,7.19336,0.42383,10.86133,6.62988,14.81055c0.70508,0.42383,3.10254,0.70605,6.06543,0.70605
	       c1.41016,0,2.68066,0.84668,2.68066,1.55176c0,2.25684-2.11621,2.53906-4.51465,2.53906
	       c-7.61719,0-7.05273-0.56445-11.70703-0.56445c-7.33594,0-10.15723,0.70508-15.23535,0.70508
	       c-5.7832,0-6.62891-0.9873-6.62891-2.11523c0-3.80859,8.32227,0.14062,10.4375-9.02832
	       c0.42383-2.25684,1.83496-21.01758,1.83496-37.66309v-8.04004c0-4.09082,0.14062-9.4502,0.14062-15.2334
	       c0-5.78418-0.14062-11.70898-0.84668-16.78711c-0.70508-5.07812-6.48828-7.47607-10.5791-7.47607
	       c-2.25684,0-2.96289-1.9751-2.96289-2.39795C406.06641,11.4043,408.18262,11.4043,410.0166,11.4043z"/>
    </g>
  </g>
</svg>
