<svg class="logo-full" version="1.1" xmlns="http://www.w3.org/2000/svg" xmlns:xlink="http://www.w3.org/1999/xlink"
     x="0px" y="0px" width="1024px" height="302.33105px"
     viewBox="0 0 1028 306"
     preserveAspectRatio="xMidYMid"
     enable-background="new 0 0 1024 302.33105" xml:space="preserve">
  <g class="ampersand" opacity="0.33">
    <path d="M410.28271,151.92676c9.04248-7.78564,15.32031-8.28857,15.32031-11.30225c0-1.7583-1.75732-4.77197-1.75732-15.3208
	     c0-36.66943,33.40479-50.98584,52.74463-50.98584c7.78564,0,26.87402,3.26514,26.87402,21.09668
	     c0,8.03857-3.01367,17.58252-16.32471,17.58252c-2.26074,0-3.01367-0.75391-3.01367-1.7583
	     c0-2.51123,3.26416-6.78174,3.26416-11.55371s-6.2793-10.7998-15.3208-10.7998c-28.38086,0-39.93604,25.61865-39.93604,42.69775
	     c0,4.01904,1.5083,4.52148,3.01514,4.52148c3.76758,0,9.79541-2.51221,18.08301-2.51221
	     c14.06592,0,21.09766,8.54004,21.09766,16.82861s-6.78125,16.32471-20.09229,16.32471
	     c-18.58691,0-24.11182-17.33008-27.37695-17.33008c-4.01807,0-20.34521,16.57715-20.34521,39.68359
	     c0,26.87549,19.84229,58.77295,60.02881,58.77295c31.39502,0,60.02881-24.61426,60.02881-50.98584
	     c0-13.56348-8.0376-24.61426-22.60498-24.61426c-11.30273,0-21.34912,7.2832-21.34912,20.09229
	     c0,9.54443,6.78125,13.31201,10.29785,13.31201c6.78174,0,7.03223-5.5249,10.29834-5.5249
	     c1.25537,0,1.75732,1.25586,1.75732,2.25977c0,4.01953-5.52539,9.7959-14.31641,9.7959
	     c-14.81885,0-20.84668-16.07471-20.84668-23.60938c0-27.12646,29.38672-33.40479,61.28418-47.7207
	     c24.86572-11.05225,39.43359-22.85742,39.43359-40.94043c0-7.78613-6.78174-18.08398-19.59131-18.08398
	     c-4.01904,0-13.95947,2.00928-13.81445,13.06055c0.19092,14.57129,20.58545,4.98193,18.81152,14.21289
	     c-0.89502,4.65576-6.98291,8.77344-15.93457,7.34033c-7.43994-1.18945-14.68115-6.98584-14.68115-15.77686
	     c0-15.32031,15.82324-25.61816,28.38135-25.61816c14.56738,0,27.12549,13.06006,27.12549,28.63184
	     c0,41.69336-55.7583,54.00098-55.7583,59.27588c0,2.7627,15.06934,5.2749,15.06934,26.37158
	     c0,14.06592-5.27393,29.38672-16.82764,40.68896c-19.08789,19.08838-38.17676,28.12988-68.06543,28.12988
	     c-38.67969,0-69.3208-19.08838-69.3208-57.5166C385.92041,180.81152,399.23145,161.2207,410.28271,151.92676z M451.72461,158.95996
	     c5.02344,0,9.54395-3.76709,9.54395-8.53906c0-7.78613-9.0415-9.54395-12.80811-9.54395c-5.2749,0-10.5498,3.26416-10.5498,6.78027
	     C437.91064,151.17383,443.93848,158.95996,451.72461,158.95996z"/>
  </g>
  <g class="letters">
    <g class="jw" opacity="0.95">
      <path d="M124.75684,128.78223c2.69678,0,3.33057,5.39209,9.19873,5.39209c6.34424,0,9.6748-5.23389,10.94336-12.37061
	       c1.42725-7.4541,2.06152-13.95654,2.06152-19.19043c0-3.80615-0.15869-19.19043-0.15869-19.50732
	       c0-10.78516-0.47559,0.1582-0.47559-54.08203c0-5.86816-0.1582-11.57812-0.63379-15.70166
	       c-0.63477-5.55078-7.61328-7.6123-12.0542-7.771c-3.17139-0.15869-3.48877-2.06201-3.48877-2.85498
	       c0-1.42725,0.79297-2.69629,4.59912-2.69629c4.44092,0,9.04004,0.95166,17.92188,0.95166
	       c6.81982,0,2.85498-0.1582,12.84619-0.1582c1.11035,0,4.44092,0,4.44092,2.06152c0,1.42725-2.69629,2.5376-7.29541,4.44043
	       c-3.01318,1.11035-3.33057,5.86816-3.33057,10.78516v7.29541c0,76.76172-0.31738,69.14893-0.31738,76.76172
	       c0,24.74121-15.70117,41.39404-32.82959,41.39404c-2.37939,0-6.34424-0.31738-6.34424-6.02686
	       C119.84033,134.33301,123.01221,128.78223,124.75684,128.78223z"/>
      <path d="M227.91113,30.77148c34.42871,0,43.09277,25.99268,43.09277,37.62061c0,32.03467-19.72217,46.51318-44.68896,46.51318
	       c-28.27197,0-42.52246-19.95068-42.52246-40.47119C183.79248,49.92432,198.84131,30.77148,227.91113,30.77148z
	       M229.96338,109.88867c12.6543,0,31.69238-10.03223,31.69238-31.0083c0-28.72852-17.55615-43.54834-37.62061-43.54834
	       c-15.27637,0-30.21045,10.03174-30.21045,33.28809C193.82471,83.09863,204.19922,109.88867,229.96338,109.88867z"/>
      <path d="M282.9126,32.13965c3.19189,0,6.49756,0.45605,12.88184,0.45605c4.90186,0,2.8501-0.22803,10.03223-0.22803
	       c0.79785,0,2.50781,0.11377,2.50781,1.5957c0,1.02637-0.3418,1.93799-3.98975,1.93799
	       c-3.53418,0-4.33203,9.80469-4.33203,14.25049v4.21826c0,4.90186-0.22852,8.20801-0.22852,10.48828
	       c0,3.87549,0.57031,4.4458,3.87646,4.4458c3.76172,0,1.93799-0.11377,18.6958-0.11377c2.5083,0,6.72656,0.11377,21.54639,0.22754
	       c1.14062,0,1.25439-0.68408,1.25439-15.8457v-6.15625c0-15.96045-9.57617-9.23438-9.57617-13.68018
	       c0-0.91211,1.70996-1.14014,4.44629-1.14014c2.73584,0,6.6123,0.22803,11.05811,0.22803
	       c2.73584,0,4.78809-0.22803,8.89209-0.22803c1.02588,0,2.62207,0.3418,2.62207,1.48193c0,1.48193-1.14014,1.48193-1.59619,1.48193
	       c-4.4458,0-6.49805,3.07861-6.49805,7.06836c-0.11377,10.94434-0.34229,19.03809-0.34229,27.70215
	       c0,5.47266-0.22754,10.94434-0.22754,17.10059v4.21777c0,6.15625,0.45605,7.2959,0.45605,10.48828
	       c0,6.72607,6.49805,8.09375,9.57617,8.43604c0.3418,0,1.36768,0.11426,1.36768,1.25391c0,1.14062-1.48193,1.25439-5.58594,1.25439
	       c-2.62207,0-5.47217-0.57031-8.77783-0.57031c-4.33203,0-5.3584,0.57031-10.7168,0.57031c-2.96387,0-4.104,0-4.104-1.48193
	       c0-2.16602,7.06836-1.59619,7.8667-5.92822c0.56934-2.96387,0.79736-5.81445,0.79736-8.32178
	       c0-2.28027,0.11426-4.33203,0.11426-6.15674c0-4.21777,0.22803-8.89209,0.22803-14.02197
	       c0-2.05176-0.79785-3.07812-7.18164-3.07812c-2.96436,0-13.33887,0.3418-14.02295,0.3418
	       c-9.46191,0-13.68018-0.3418-20.97607-0.3418c-2.05176,0-2.8501,0.22803-2.8501,4.21826
	       c0,5.47217-0.45605,9.57617-0.45605,14.02197v4.90186c0,5.81445,0.34229,8.77881,5.35791,11.97021
	       c0.57031,0.34229,2.5083,0.57031,4.90234,0.57031c1.13965,0,2.1665,0.68408,2.1665,1.25391
	       c0,1.82373-1.71045,2.05225-3.64893,2.05225c-6.15576,0-5.69971-0.45605-9.46191-0.45605
	       c-5.92773,0-8.20801,0.56982-12.31201,0.56982c-4.67383,0-5.35791-0.79785-5.35791-1.70996
	       c0-3.07812,6.72607,0.11426,8.43604-7.29639c0.3418-1.82373,1.48193-16.98584,1.48193-30.43848v-6.49756
	       c0-3.30615,0.11426-7.63818,0.11426-12.3125c0-4.67383-0.11426-9.4624-0.68408-13.56592
	       c-0.57031-4.10449-5.24414-6.04199-8.55029-6.04199c-1.82373,0-2.39404-1.59619-2.39404-1.93848
	       C279.72021,32.13965,281.43018,32.13965,282.9126,32.13965z"/>
      <path d="M378.2793,32.36768c1.25439,0,3.30615,0.11377,4.33252,0.11377c3.07812,0,3.41992-0.22803,5.58594-0.22803
	       c1.36816,0,3.64795,1.02588,3.98975,1.93799c0.45654,0.91211,3.87646,4.21826,7.06885,8.43652
	       c11.7417,15.27637,34.42822,40.92676,41.49658,48.67871c3.19141,3.53418,4.33203,5.12988,5.12988,5.12988
	       c1.02588,0,1.14014-3.41943,1.14014-7.06836V76.03027c0-17.44189-0.22803-20.97607-0.22803-23.37012v-0.79834
	       c0-15.96045-6.15625-14.36426-10.94434-15.8457c-1.59619-0.45654-2.28027-1.25439-2.28027-1.93848
	       c0-0.91211,0.34229-1.70996,2.1665-1.70996c1.36768,0,9.57617,0.11377,10.82959,0.11377
	       c4.78857,0,8.09473-0.22803,10.26025-0.22803c2.5083,0,3.42041,0.34229,3.42041,1.93799c0,1.25439-3.76221,2.1665-3.98975,2.28027
	       c-1.02637,0.57031-3.7627,3.30615-3.7627,12.88232v4.33203c0,16.07422-1.25391,45.14453-1.25391,56.43066v2.28027
	       c0,1.48193-0.22803,2.62207-1.5957,2.62207c-0.68408,0-1.48242-0.45654-1.82422-0.79834
	       c-50.50293-58.48291-52.21289-60.4209-53.35303-60.4209c-0.79785,0-1.13965,3.07861-1.13965,7.75244
	       c0,18.46777-0.91211,31.46484-0.91211,36.93652c0,15.04785,11.17236,9.34814,11.17236,13.11035
	       c0,1.82373-0.57031,1.9375-1.82471,1.9375c-3.30566,0-2.16553-0.22754-12.19775-0.22754
	       c-2.39404,0-5.58594,0.22754-9.69043,0.22754c-1.48193,0-2.50781-0.11377-2.50781-1.82373
	       c0-2.96387,5.7002,0.68408,8.43604-8.66406c1.02588-3.76221,2.73584-38.53223,2.73584-46.85498
	       c0-12.99609-3.41992-19.26611-11.62793-20.17773c-1.48193-0.11475-1.48193-1.14062-1.48193-1.71045
	       C375.42969,33.50781,376.56934,32.36768,378.2793,32.36768z"/>
      <path d="M498.36035,0.63477c3.48877,0,6.97803,0.47559,17.44531,0.47559c7.6123,0,11.57861-0.47559,13.64014-0.47559
	       c1.90332,0,2.21973,0.47559,2.21973,1.90283c0,2.5376-6.81934,2.2207-6.81934,7.45459c0,4.9165,5.55078,14.74951,22.521,53.60596
	       c5.2334,12.05371,12.2124,29.49951,13.79785,29.49951c0.95117,0,8.72363-17.4458,13.00488-28.38916
	       c1.58643-4.12354,3.17236-5.55127,3.17236-8.56445c0-2.06201-17.7627-43.13867-21.72754-47.57959
	       c-3.17285-3.48926-4.91699-3.17188-7.1377-3.33057c-6.34424-0.63428-6.34424-1.11035-6.34424-2.5376
	       c0-2.06152,2.85547-2.22021,4.59961-2.22021c3.48926,0,6.979,0.63428,17.4458,0.63428c1.42822,0,6.50244-0.63428,10.46729-0.63428
	       c2.69678,0,4.75879,0.31738,4.75879,1.26904c0,2.37842-6.82031,2.85449-6.82031,8.08838
	       c0,3.48877,1.90332,7.29541,4.91699,14.11523c1.42725,3.17188,6.02686,16.01807,7.45361,16.01807
	       c1.74463,0,11.41992-27.12012,11.41992-30.29199c0-6.66162-9.5166-4.28223-9.5166-7.61279
	       c0-1.42725,1.26953-1.74463,3.48975-1.74463c2.21973,0,7.13672,0.31738,10.15039,0.31738h2.69531
	       c2.06201,0,4.28223-0.15869,8.40625-0.47607h1.42676c1.11084,0,2.06201,0.31738,2.06201,1.58643
	       c0,2.85449-4.59863,1.90283-7.13672,4.59912c-1.42676,1.42725-3.01367,3.80615-4.44092,7.29541
	       c-14.11523,33.62305-14.27393,32.98828-14.27393,36.16016c0,0.79346,18.39795,44.4082,21.09424,44.4082
	       c2.53662,0,35.04932-78.82373,35.04932-84.05762c0-7.4541-11.73584-4.28174-11.73584-8.08838
	       c0-1.42725,0.15869-1.58594,3.01367-1.58594c1.90332,0,4.44092,0.15869,9.9917,0.15869
	       c6.02686,0,6.34424-0.31738,14.11523-0.31738c1.74463,0,3.17139,0.31738,3.17139,2.22021c0,2.5376-3.17139,2.2207-6.50244,5.55078
	       c-2.6958,2.69678-3.48877,5.39258-6.18457,11.41943c-43.61475,97.69678-42.82178,97.85547-45.04199,97.85547
	       c-1.74463,0-4.91699-8.88135-7.29639-14.11523c-6.66016-15.38428-15.70068-37.90527-17.28662-37.90527
	       c-2.37891,0-20.14209,45.04199-20.45947,46.31055c-1.58545,4.59961-1.74414,6.18555-3.33008,6.18555
	       c-3.33105,0-7.45459-16.33594-21.88721-47.73828c-11.57764-25.21729-16.49463-38.06348-19.50732-45.51758
	       c-10.94336-27.27881-22.3623-14.43262-22.3623-21.72803C494.07812,0.79346,496.61523,0.63477,498.36035,0.63477z"/>
      <path d="M659.68994,31.79785c0.9126,0,1.93848,0.22803,3.07764,0.22803c2.7373,0,16.53125,0.56982,27.81689,0.56982
	       c4.56006,0,19.38086-0.45605,22.80078-0.45605c0.79736,0,2.16553,0.22803,2.16553,2.62207
	       c0,2.28027-1.36816,5.92822-1.36816,11.62842c0,1.36768-0.91162,2.50732-1.82324,2.50732
	       c-0.9126,0-1.70996-0.79736-1.70996-2.39355c0-3.99023-2.8501-7.98047-6.72656-8.2085
	       c-7.2959-0.56934-9.4624-0.79785-15.73242-0.79785h-2.96387c-7.97998,0-7.75195,0.11377-8.09424,6.9541
	       c-0.22754,4.104-0.45605,13.79443-0.45605,19.03809c0,2.05273,0.11426,5.70068,2.16602,5.81445h2.8501h4.78809h3.53418
	       c9.80469,0,11.05811-0.68408,13.22412-2.16602c1.93799-1.36816,2.39404-2.96387,2.62158-4.21777
	       c0.229-1.14062,0.45654-1.93848,1.59668-1.93848c1.36816,0,1.48145,0.45605,1.48145,1.82422
	       c0,2.05225-0.91162,7.97998-0.91162,11.96973c0,3.87646,0.3418,4.78857,0.3418,6.9541c0,2.73682-0.45605,2.85059-0.79834,2.85059
	       c-1.36768,0-2.05176-1.14014-2.50684-2.73584c-0.68408-2.05225-1.14062-4.44678-2.85059-5.58643
	       c-2.39355-1.59619-10.48828-1.59619-10.94434-1.59619c-9.91797,0-8.77783-0.11377-10.03223-0.11377
	       c-2.39404,0-4.67383,0.34229-4.67383,2.16602c0,6.49805-0.22852,10.03223-0.22852,16.4165v4.56006
	       c0,3.76172,0.79834,8.43604,2.73584,9.00586c2.5083,0.79785,3.19238,0.91211,4.90234,0.91211
	       c36.36719,0,32.14893-10.83008,35.45459-10.83008c0.68408,0,1.36816,0.57031,1.36816,1.93799
	       c0,6.83984-8.89209,14.93408-13.45215,14.93408c-14.59229,0-24.39648-1.14014-31.35059-1.14014
	       c-6.27002,0-9.91797,1.02588-15.50391,1.02588c-1.14014,0-2.39404,0.11426-2.39404-1.13965
	       c0-3.07812,0.11426-1.25439,4.90234-3.53418c3.53418-1.70996,4.4458-4.67432,4.4458-22.11621V72.61035
	       c0-6.27002,0.3418-12.6543,0.3418-19.72266c0-3.30566-0.11426-6.72607-0.22754-10.37402
	       c-0.22852-4.7876-4.78906-6.9541-9.23486-7.06787c-1.82422,0-1.82422-1.02588-1.82422-2.05225
	       C656.49756,32.02588,658.77832,31.79785,659.68994,31.79785z"/>
      <path d="M734.98291,89.36816c0.68408,0,1.5957,0.45654,1.82422,1.14062c2.8501,6.9541,8.5498,19.03809,24.96631,19.03809
	       c11.51416,0,18.92383-6.6123,18.92383-16.30225c0-15.39014-19.83545-14.47803-34.65625-23.37012
	       c-6.49805-3.87646-10.37402-9.00635-10.37402-16.75879c0-13.56592,10.94434-22.34424,26.44824-22.34424
	       c7.29639,0,14.82031,3.76221,16.41699,3.76221c0.68359,0,1.82324-0.91211,2.62109-0.91211
	       c0.68408,0,1.59668,0.3418,1.70996,0.91211c0.91309,5.24414,2.39404,13.9082,2.39404,15.50439
	       c0,2.39404-0.91162,3.19189-1.5957,3.19189c-0.91162,0-1.25342-0.56982-1.59521-1.5957
	       c-2.85059-6.9541-4.21826-7.75244-7.5249-10.7168c-4.21826-3.76172-9.68994-5.47168-14.93408-5.47168
	       c-9.00635,0-16.64453,4.67383-16.64453,12.6543c0,18.24023,26.44873,13.22412,40.47119,28.27197
	       c2.73584,2.96436,4.55908,6.9541,4.55908,12.19824c0,16.4165-12.08398,25.99219-26.56152,25.99219
	       c-9.69043,0-15.39062-0.56934-22.45801-4.33203c-2.39502-1.36768-5.58643-17.44189-5.58643-18.46777
	       C733.38721,90.05273,734.18457,89.36816,734.98291,89.36816z"/>
      <path d="M800.60938,35.21777c0.34229-2.50781,0.11426-3.99023,3.53418-3.99023c7.98047,0,6.9541,0.91211,32.14844,0.91211
	       c16.87256,0,29.0708-0.22803,35.1123-0.57031c0.229,0,0.5708-0.11377,0.79834-0.11377c1.93896,0,2.1665,1.59619,2.1665,1.93799
	       c0,1.36816,0.68359,8.32227,0.68359,9.23438c0,3.99023-0.3418,4.33203-1.82422,4.33203
	       c-0.22754,0-0.91162-0.11426-1.25342-1.36816c-1.48242-5.3584-1.93848-7.52393-11.51416-7.52393h-14.82031
	       c-3.64844,0-3.99023,0.45557-3.99023,7.2959v5.58643c0,26.5625-0.3418,31.3501-0.3418,41.72412
	       c0,2.96436-0.11475,5.3584-0.11475,7.41064c0,3.07764,0.229,5.12988,1.59668,6.49756
	       c4.33154,4.21826,9.57568,2.05273,9.57568,5.0166c0,1.82373-0.79834,1.9375-2.73584,1.9375
	       c-2.96338,0-8.8916-0.91162-12.65479-0.91162c-2.96338,0-7.97998,0.79785-11.62744,0.79785
	       c-2.39404,0-4.21826-0.45557-4.21826-1.82373c0-2.39453,3.07812-1.93799,5.92822-2.62207
	       c2.05176-0.45654,3.99072-1.48242,4.33252-4.56006c0.91162-7.98047,1.13916-38.30518,1.13916-43.09277
	       c0-12.08398-0.11328-20.40674-0.11328-20.40674c0-2.84961-0.3418-3.19141-8.66406-3.19141
	       c-16.87256,0-17.10059,1.25391-18.35498,2.84961c-3.07812,4.10449-1.82324,8.32178-4.67383,8.32178
	       c-0.68359,0-1.25439-0.3418-1.25439-1.9375C799.46924,43.65381,800.15332,38.06787,800.60938,35.21777z"/>
    </g>
    <g class="hh" opacity="0.95">
      <path d="M4.44092,187.90088c4.44043,0,9.04004,0.63477,17.92139,0.63477c6.81982,0,3.96484-0.31738,13.95654-0.31738
	       c1.11035,0,3.48926,0.15869,3.48926,2.22021c0,1.42822-0.47559,2.69678-5.55078,2.69678
	       c-4.9165,0-6.02686,13.63916-6.02686,19.82471v5.86768c0,6.82031-0.31738,11.41992-0.31738,14.59131
	       c0,5.39209,0.79346,6.18555,5.39258,6.18555c5.23389,0,2.6958-0.15869,26.00977-0.15869
	       c3.48975,0,9.35742,0.15869,29.97559,0.31738c1.58594,0,1.74414-0.95215,1.74414-22.04492v-8.56494
	       c0-22.20361-13.32227-12.84668-13.32227-19.03223c0-1.26807,2.37939-1.58545,6.18555-1.58545s9.19873,0.31738,15.38428,0.31738
	       c3.80615,0,6.66113-0.31738,12.37061-0.31738c1.42725,0,3.64746,0.47607,3.64746,2.06152
	       c0,2.06201-1.58545,2.06201-2.22021,2.06201c-6.18506,0-9.04004,4.28223-9.04004,9.83301
	       c-0.1582,15.22607-0.47559,26.48584-0.47559,38.53955c0,7.61328-0.31738,15.22559-0.31738,23.79053v5.86768
	       c0,8.56348,0.63477,10.15039,0.63477,14.59131c0,9.35693,9.04004,11.26025,13.32178,11.73633
	       c0.47607,0,1.90332,0.15869,1.90332,1.74414c0,1.58594-2.06152,1.74463-7.77148,1.74463
	       c-3.64746,0-7.6123-0.79346-12.21191-0.79346c-6.02686,0-7.4541,0.79346-14.9082,0.79346c-4.12354,0-5.70947,0-5.70947-2.06201
	       c0-3.01367,9.83301-2.22021,10.94336-8.24707c0.79297-4.12354,1.11035-8.08838,1.11035-11.57715
	       c0-3.17285,0.1582-6.02686,0.1582-8.56494c0-5.86768,0.31689-12.37061,0.31689-19.50684
	       c0-2.85547-1.10986-4.28271-9.99121-4.28271c-4.12402,0-18.55615,0.4751-19.50781,0.4751
	       c-13.16357,0-19.03174-0.4751-29.18213-0.4751c-2.85449,0-3.96484,0.31738-3.96484,5.86816
	       c0,7.61279-0.63428,13.32178-0.63428,19.50732v6.82031c0,8.08838,0.47559,12.21191,7.45361,16.65283
	       c0.79297,0.4751,3.48975,0.79248,6.81982,0.79248c1.58643,0,3.01367,0.95215,3.01367,1.74414
	       c0,2.53809-2.37891,2.85547-5.07568,2.85547c-8.56396,0-7.92969-0.63477-13.16357-0.63477
	       c-8.24658,0-11.41846,0.79346-17.12842,0.79346c-6.50244,0-7.45361-1.11084-7.45361-2.37939
	       c0-4.28223,9.35693,0.15869,11.73584-10.1499c0.47607-2.53809,2.06201-23.63086,2.06201-42.3457v-9.04102
	       c0-4.59863,0.15869-10.625,0.15869-17.12793c0-6.50244-0.15869-13.16406-0.95166-18.87354s-7.2959-8.40576-11.89502-8.40576
	       c-2.5376,0-3.33057-2.2207-3.33057-2.69531C0,187.90088,2.37891,187.90088,4.44092,187.90088z"/>
      <path d="M175.11133,218.19727c34.42871,0,43.09277,25.99219,43.09277,37.62061c0,32.03369-19.72217,46.5127-44.68896,46.5127
	       c-28.27246,0-42.52246-19.95068-42.52246-40.47119C130.99268,237.34961,146.04053,218.19727,175.11133,218.19727z
	       M177.16309,297.31396c12.6543,0,31.69287-10.03174,31.69287-31.00879c0-28.72803-17.55615-43.54785-37.62109-43.54785
	       c-15.27588,0-30.21045,10.03174-30.21045,33.28809C141.02441,270.52344,151.39893,297.31396,177.16309,297.31396z"/>
      <path d="M229.99805,219.22314c0.91211,0,1.93848,0.22754,3.07812,0.22754c2.73633,0,5.3584,0.45654,9.91797,0.45654
	       c6.15625,0,9.91846-0.45654,11.97021-0.45654c1.48242,0,1.93799,0.22852,1.93799,1.14014
	       c0,4.90234-8.5498-1.48193-9.34766,12.31299c-0.34229,7.06738-0.91211,46.39795-0.91211,47.65186v4.56006
	       c0,3.76172,0.79785,8.43652,2.73633,9.00586c2.50781,0.79834,3.19141,0.9126,4.90137,0.9126
	       c36.3667,0,32.14893-10.83008,35.45459-10.83008c0.68408,0,1.36816,0.56982,1.36816,1.9375
	       c0,6.84082-8.8916,14.93457-13.45215,14.93457c-14.59229,0-24.39648-1.13965-31.35059-1.13965
	       c-6.27002,0-8.66406,0.91162-14.25,0.91162c-2.28027,0-3.30615-0.56934-3.30615-1.36768
	       c0-1.25391,1.25391-1.82422,1.82422-1.82422c0.45557,0,1.70996,0,3.30615-1.14062
	       c2.50781-1.9375,3.87598-4.90088,3.87598-22.34375v-14.13672c0-6.26904,0.34229-12.65381,0.34229-19.72217
	       c0-3.30566-0.11475-6.72559-0.22852-10.37402c-0.22803-4.7876-4.78809-6.9541-9.23389-7.06836
	       c-1.59619,0-1.70996-0.68408-1.70996-1.5957C226.92041,219.56494,229.08594,219.22314,229.99805,219.22314z"/>
      <path d="M301.34814,219.22314c0.91211,0,1.93799,0.22754,3.07764,0.22754c2.73633,0,5.3584,0.45654,9.91846,0.45654
	       c6.15625,0,9.91797-0.45654,11.96973-0.45654c1.48242,0,1.93848,0.22852,1.93848,1.14014
	       c0,4.90234-8.5498-1.48193-9.34814,12.31299c-0.3418,7.06738-0.91211,46.39795-0.91211,47.65186v4.56006
	       c0,3.76172,0.79834,8.43652,2.73633,9.00586c2.50781,0.79834,3.19189,0.9126,4.90186,0.9126
	       c36.3667,0,32.14844-10.83008,35.45459-10.83008c0.68359,0,1.36768,0.56982,1.36768,1.9375
	       c0,6.84082-8.8916,14.93457-13.45166,14.93457c-14.59229,0-24.39648-1.13965-31.35107-1.13965
	       c-6.27002,0-8.66406,0.91162-14.25,0.91162c-2.28027,0-3.30615-0.56934-3.30615-1.36768
	       c0-1.25391,1.25439-1.82422,1.82422-1.82422c0.45605,0,1.70996,0,3.30615-1.14062
	       c2.50781-1.9375,3.87646-4.90088,3.87646-22.34375v-14.13672c0-6.26904,0.3418-12.65381,0.3418-19.72217
	       c0-3.30566-0.11426-6.72559-0.22803-10.37402c-0.22852-4.7876-4.78857-6.9541-9.23438-7.06836
	       c-1.59619,0-1.70996-0.68408-1.70996-1.5957C298.27002,219.56494,300.43555,219.22314,301.34814,219.22314z"/>
      <path d="M363.7041,220.13477c1.48193,0,4.67383,0.22852,6.61182,0.22852c2.62207,0,6.49854-0.11426,9.69043-0.11426
	       c3.98975,0,5.7002,0.56982,5.7002,1.36816c0,2.39355-4.78809,1.82422-4.78809,3.99023c0,3.41992,4.10352,8.66406,6.15625,11.85547
	       c5.24365,8.2085,11.97021,17.3291,12.76807,17.3291c1.5957,0,3.98975-5.24414,7.6377-10.60254
	       c3.99023-6.04248,8.66406-12.65381,8.66406-15.73291c0-3.19092-1.93799-4.10352-3.87549-4.56006
	       c-2.1665-0.45508-4.56006-0.3418-4.56006-2.39404c0-1.13916,1.13965-1.36768,3.19141-1.36768
	       c1.25439,0,2.85059,0.11426,4.6748,0.11426c5.12988,0,7.75195,0.11426,12.08398,0.11426
	       c3.19189,0,5.58594,0.11328,5.58594,1.70996c0,1.13916-2.5083,1.13916-4.90234,3.07812
	       c-7.97998,6.27002-16.87207,23.37061-24.05371,32.604c-2.5083,3.19238-2.73633,6.04248-2.73633,14.36475
	       c0,3.07812,0.11426,9.34814,0.11426,13.22412v2.73584c0,8.20801,4.55957,8.89209,6.04199,8.89209
	       c0.3418,0,1.93799,0.11426,2.27979,0.11426c1.14014,0,1.70996,1.02588,1.70996,1.5957c0,1.48193-0.68408,1.82422-2.73584,1.82422
	       c-1.59619,0-7.86621-0.11426-11.40039-0.11426c-7.41016,0-7.86572,0.45605-12.54053,0.45605
	       c-2.50732,0-3.19141-0.45605-3.19141-1.25342c0-2.39404,2.50781-1.59668,4.90186-2.28076
	       c2.27979-0.68408,4.78809-2.5083,4.78809-6.9541c0-2.8501,0.22803-2.05176,0.22803-23.14209
	       c0-6.9541-1.59619-7.06836-17.89844-31.69238c-7.52393-11.40039-11.05811-11.9707-14.36426-11.9707
	       c-1.02588,0-2.8501,0-2.8501-1.48145C356.63574,220.36328,358.00391,220.13477,363.7041,220.13477z"/>
      <path d="M489.46582,187.90088c4.44092,0,9.04053,0.63477,17.92188,0.63477c6.81934,0,3.96484-0.31738,13.95703-0.31738
	       c1.10938,0,3.48877,0.15869,3.48877,2.22021c0,1.42822-0.47607,2.69678-5.55078,2.69678
	       c-4.91699,0-6.02686,13.63916-6.02686,19.82471v5.86768c0,6.82031-0.31738,11.41992-0.31738,14.59131
	       c0,5.39209,0.79297,6.18555,5.39209,6.18555c5.2334,0,2.69678-0.15869,26.01025-0.15869
	       c3.48975,0,9.35791,0.15869,29.97461,0.31738c1.58691,0,1.74561-0.95215,1.74561-22.04492v-8.56494
	       c0-22.20361-13.32275-12.84668-13.32275-19.03223c0-1.26807,2.37891-1.58545,6.18555-1.58545
	       c3.80615,0,9.19922,0.31738,15.38428,0.31738c3.80615,0,6.66064-0.31738,12.37012-0.31738
	       c1.42773,0,3.64844,0.47607,3.64844,2.06152c0,2.06201-1.58691,2.06201-2.2207,2.06201
	       c-6.18506,0-9.04053,4.28223-9.04053,9.83301c-0.15869,15.22607-0.47607,26.48584-0.47607,38.53955
	       c0,7.61328-0.31641,15.22559-0.31641,23.79053v5.86768c0,8.56348,0.63379,10.15039,0.63379,14.59131
	       c0,9.35693,9.04053,11.26025,13.32275,11.73633c0.4751,0,1.90332,0.15869,1.90332,1.74414
	       c0,1.58594-2.06152,1.74463-7.771,1.74463c-3.64893,0-7.61377-0.79346-12.2124-0.79346
	       c-6.02637,0-7.45459,0.79346-14.9082,0.79346c-4.12402,0-5.70947,0-5.70947-2.06201c0-3.01367,9.83301-2.22021,10.94238-8.24707
	       c0.79346-4.12354,1.11084-8.08838,1.11084-11.57715c0-3.17285,0.15869-6.02686,0.15869-8.56494
	       c0-5.86768,0.31738-12.37061,0.31738-19.50684c0-2.85547-1.11084-4.28271-9.9917-4.28271
	       c-4.12354,0-18.55615,0.4751-19.5083,0.4751c-13.16309,0-19.03076-0.4751-29.18164-0.4751
	       c-2.85498,0-3.96533,0.31738-3.96533,5.86816c0,7.61279-0.63379,13.32178-0.63379,19.50732v6.82031
	       c0,8.08838,0.47559,12.21191,7.45361,16.65283c0.79346,0.4751,3.48877,0.79248,6.81982,0.79248
	       c1.58594,0,3.01318,0.95215,3.01318,1.74414c0,2.53809-2.37939,2.85547-5.07471,2.85547
	       c-8.56445,0-7.93018-0.63477-13.16406-0.63477c-8.24658,0-11.41895,0.79346-17.12891,0.79346
	       c-6.50195,0-7.45361-1.11084-7.45361-2.37939c0-4.28223,9.35693,0.15869,11.73633-10.1499
	       c0.47559-2.53809,2.06152-23.63086,2.06152-42.3457v-9.04102c0-4.59863,0.15869-10.625,0.15869-17.12793
	       c0-6.50244-0.15869-13.16406-0.95166-18.87354s-7.29541-8.40576-11.89453-8.40576c-2.53809,0-3.33057-2.2207-3.33057-2.69531
	       C485.02539,187.90088,487.4043,187.90088,489.46582,187.90088z"/>
      <path d="M620.95557,297.42822c6.61084-2.5083,5.81348-4.7876,39.67139-76.8374c1.02637-2.2793,1.59668-2.62158,3.41992-2.62158
	       c2.39502,0,0.91309,0.22803,8.20898,18.35449c5.35742,13.22412,21.43213,50.50195,22.34473,52.32617
	       c5.69922,11.51416,12.65332,6.27002,12.65332,10.37402c0,0.5708-0.22754,1.70996-3.07764,1.70996
	       c-2.62158,0-7.06836-0.68408-10.25977-0.68408c-4.10498,0-7.2959,0.45654-10.60254,0.45654
	       c-4.78809,0-5.47217-0.22754-5.47217-1.5957c0-2.5083,5.69971-1.02588,5.69971-5.3584
	       c0-3.64746-5.24414-17.32812-7.63818-21.66064c-0.45508-0.91162-0.91162-1.93799-4.67334-1.93799
	       c-2.39404,0-6.38477,0.22803-13.79395,0.22803h-6.04248c-7.06836,0-7.52393,0.57031-8.77832,3.30664
	       c-4.104,8.66406-7.29639,14.5918-7.29639,17.78418c0,7.86572,8.43652,4.21729,8.43652,7.75146
	       c0,0.9126-0.11426,1.59668-1.93848,1.59668c-1.82324,0-5.47217-0.11426-9.46143-0.11426
	       c-4.4458,0-7.29639,0.45605-9.80469,0.45605c-2.05176,0-3.30615-0.22852-3.30615-1.36768
	       C619.24463,298.4541,619.92822,297.77051,620.95557,297.42822z M653.67285,264.14014h3.53418
	       c5.0166,0,10.83057-0.11426,10.83057-0.11426c2.96338,0,4.4458-0.56982,4.4458-1.82471
	       c0-1.36768-10.48828-26.67578-12.65332-26.67578c-1.48242,0-11.9707,25.08057-11.9707,26.44824
	       C647.85938,264.02588,648.88525,264.14014,653.67285,264.14014z"/>
      <path d="M720.90723,219.3374h18.92383c4.90186,0,7.41016-0.34229,11.40088-0.34229c12.99561,0,24.85205,6.95459,24.85205,19.15186
	       c0,16.87256-14.25049,19.95068-14.25049,21.7749s18.01221,27.01807,22.68701,31.92041
	       c0.45605,0.56934,4.56006,5.3584,10.48828,5.3584c0.68359,0,1.5957,0.45557,1.5957,1.36816
	       c0,1.9375-0.22803,2.84912-8.43652,2.84912c-0.34229,0-5.69971-0.22754-9.80371-2.62158
	       c-6.04248-3.53418-14.5918-17.89893-20.40674-27.36035c-4.78809-7.75244-7.06787-8.89258-8.43555-8.89258h-2.39502h-6.9541
	       c-1.70996,0-1.9375,0-1.9375,8.09424c0,16.07471,0.11426,14.47803,0.11426,16.07471
	       c0,13.79395,14.02148,9.00586,14.02148,12.76807c0,1.14014-0.45508,1.82422-2.05176,1.82422
	       c-0.45557,0-15.16211-0.79834-16.30225-0.79834c-5.47168,0-11.28564,0.45605-12.54053,0.45605
	       c-1.13916,0-2.39355-0.3418-2.39355-1.82422c0-3.99023,9.57666,1.02588,9.57666-11.51416
	       c0-7.29639,0.11328-23.25635,0.11328-35.91113c0-11.96973-0.11328-16.1875-0.11328-19.26562
	       c0-12.3125-11.05908-7.75244-11.05908-11.28662C717.60059,219.6792,718.51318,219.3374,720.90723,219.3374z M739.14697,257.18604
	       c1.48242,0.91162,2.73682,1.02588,4.90234,1.02588h1.14014h3.30664c13.90723,0,18.01221-7.75244,18.01221-15.84668
	       c0-7.86621-5.81494-18.69629-22.23047-18.69629c-5.81494,0-6.04248,2.28076-6.04248,12.54004v3.19238
	       C738.23535,254.33545,738.23535,256.61523,739.14697,257.18604z"/>
      <path d="M809.24121,219.56494c1.14014,0,0.79834-0.11426,4.21826-0.11426c1.25342,0,4.7876,0.3418,6.83984,0.3418
	       c4.90186,0,14.81982-0.3418,18.81006-0.3418c12.99658,0,26.22021,6.6123,26.22021,20.97656
	       c0,19.72217-18.80957,23.71289-24.85205,23.71289c-4.78809,0-11.17236-1.36816-11.17236-2.62256
	       c0-1.25391,0.68408-1.70996,1.48242-1.70996c1.59521,0,2.8501,0.9126,5.81396,0.9126
	       c6.15576,0,19.03809-3.19238,19.03809-15.96143c0-8.8916-7.52393-20.74805-23.14209-20.74805
	       c-4.4458,0-6.04248,1.36816-6.04248,11.62891c0,45.03027-0.22803,11.51416-0.22803,47.08203
	       c0,7.8667,2.05225,11.3999,4.6748,13.10986c3.98975,2.5083,9.46143-0.45508,9.46143,3.53467
	       c0,1.59619-1.36816,1.93848-2.62158,1.93848c-4.56006,0-14.59229-0.5708-16.30225-0.5708
	       c-2.8501,0-5.58643,0.45654-10.60254,0.45654c-1.25391,0-3.53418,0-3.53418-1.25391c0-2.62256,1.71094-2.62256,4.33203-3.30664
	       c1.5957-0.45605,2.1665,0.34229,3.99072-5.01514c1.13916-3.30664,1.70996-33.40283,1.70996-40.24365
	       c0-11.96973-0.11426-16.41553-0.11426-19.37988c0-2.73633-1.5957-9.12061-8.32227-9.12061
	       c-1.25439,0-2.28027-0.3418-2.28027-1.48145C806.61865,220.47656,807.41699,219.56494,809.24121,219.56494z"/>
      <path d="M875.73389,219.22314c0.9126,0,1.93896,0.22754,3.07812,0.22754c2.73682,0,16.53076,0.5708,27.81641,0.5708
	       c4.56006,0,19.38135-0.45654,22.80127-0.45654c0.79688,0,2.16504,0.22754,2.16504,2.62158
	       c0,2.28076-1.36816,5.92822-1.36816,11.62891c0,1.36768-0.91162,2.5083-1.82324,2.5083c-0.9126,0-1.70996-0.79834-1.70996-2.39404
	       c0-3.99072-2.8501-7.97998-6.72656-8.20898c-7.2959-0.56934-9.46191-0.79736-15.73242-0.79736H901.271
	       c-7.97998,0-7.75244,0.11328-8.09424,6.9541c-0.22803,4.104-0.45654,13.79395-0.45654,19.03809
	       c0,2.05225,0.11426,5.69971,2.1665,5.81396h2.8501h4.7876h3.53418c9.80469,0,11.05811-0.68408,13.22461-2.16602
	       c1.9375-1.36816,2.39355-2.96387,2.62158-4.21826c0.22852-1.13965,0.45605-1.9375,1.59668-1.9375
	       c1.36768,0,1.48193,0.45605,1.48193,1.82422c0,2.05176-0.9126,7.97998-0.9126,11.96924c0,3.87646,0.34229,4.78809,0.34229,6.9541
	       c0,2.73633-0.45654,2.85059-0.79834,2.85059c-1.36816,0-2.05225-1.14062-2.50732-2.73584
	       c-0.68408-2.05225-1.14062-4.4458-2.85059-5.58643c-2.39355-1.5957-10.48828-1.5957-10.94434-1.5957
	       c-9.91797,0-8.77734-0.11426-10.03223-0.11426c-2.39355,0-4.67334,0.34229-4.67334,2.1665
	       c0,6.49756-0.229,10.03174-0.229,16.41553v4.56006c0,3.76172,0.79883,8.43652,2.73633,9.00586
	       c2.5083,0.79834,3.19189,0.9126,4.90186,0.9126c36.36768,0,32.14941-10.83008,35.45459-10.83008
	       c0.68408,0,1.36816,0.56982,1.36816,1.9375c0,6.84082-8.8916,14.93457-13.45215,14.93457
	       c-14.5918,0-24.39648-1.13965-31.35059-1.13965c-6.27002,0-9.91748,1.02588-15.50391,1.02588
	       c-1.14014,0-2.39404,0.11377-2.39404-1.14014c0-3.07812,0.11475-1.25342,4.90234-3.53418
	       c3.53418-1.70996,4.4458-4.67334,4.4458-22.11621v-14.13672c0-6.26904,0.34229-12.65381,0.34229-19.72217
	       c0-3.30566-0.11475-6.72559-0.22803-10.37402c-0.22852-4.7876-4.78857-6.9541-9.23438-7.06836
	       c-1.82422,0-1.82422-1.02588-1.82422-2.05176C872.54199,219.45068,874.82227,219.22314,875.73389,219.22314z"/>
      <path d="M948.30273,219.3374h18.92383c4.90234,0,7.41064-0.34229,11.40137-0.34229c12.99512,0,24.85156,6.95459,24.85156,19.15186
	       c0,16.87256-14.25,19.95068-14.25,21.7749s18.01221,27.01807,22.68652,31.92041c0.45654,0.56934,4.56006,5.3584,10.48828,5.3584
	       c0.68408,0,1.5957,0.45557,1.5957,1.36816c0,1.9375-0.22754,2.84912-8.43652,2.84912c-0.3418,0-5.69922-0.22754-9.80322-2.62158
	       c-6.04248-3.53418-14.59229-17.89893-20.40723-27.36035c-4.7876-7.75244-7.06738-8.89258-8.43506-8.89258h-2.39502h-6.9541
	       c-1.70996,0-1.93799,0-1.93799,8.09424c0,16.07471,0.11475,14.47803,0.11475,16.07471
	       c0,13.79395,14.02148,9.00586,14.02148,12.76807c0,1.14014-0.45557,1.82422-2.05225,1.82422
	       c-0.45508,0-15.16162-0.79834-16.30176-0.79834c-5.47217,0-11.28613,0.45605-12.54053,0.45605
	       c-1.13916,0-2.39404-0.3418-2.39404-1.82422c0-3.99023,9.57666,1.02588,9.57666-11.51416
	       c0-7.29639,0.11377-23.25635,0.11377-35.91113c0-11.96973-0.11377-16.1875-0.11377-19.26562
	       c0-12.3125-11.05908-7.75244-11.05908-11.28662C944.99609,219.6792,945.90918,219.3374,948.30273,219.3374z M966.54297,257.18604
	       c1.48193,0.91162,2.73682,1.02588,4.90186,1.02588h1.14014h3.30664c13.90723,0,18.01221-7.75244,18.01221-15.84668
	       c0-7.86621-5.81494-18.69629-22.22998-18.69629c-5.81494,0-6.04297,2.28076-6.04297,12.54004v3.19238
	       C965.63086,254.33545,965.63086,256.61523,966.54297,257.18604z"/>
    </g>
  </g>
</svg>
