<svg class="logo-condensed-vertical" version="1.1" xmlns="http://www.w3.org/2000/svg" xmlns:xlink="http://www.w3.org/1999/xlink"
     x="0px" y="0px" width="343.30811px" height="512px"
     viewBox="0 0 351 520"
     preserveAspectRatio="xMidYMid"
     enable-background="new 0 0 343.30811 512" xml:space="preserve">
  <g class="ampersand" opacity="0.33">
    <path d="M126.93945,247.46289c8.02051-6.90674,13.59131-7.35254,13.59131-10.02637c0-1.55957-1.56104-4.23242-1.56104-13.59131
	     c0-32.52539,29.63135-45.22559,46.78662-45.22559c6.90625,0,23.83887,2.89648,23.83887,18.71533
	     c0,7.12793-2.67383,15.5957-14.48145,15.5957c-2.00537,0-2.67383-0.66992-2.67383-1.56104
	     c0-2.22705,2.89697-6.01514,2.89697-10.24805c0-4.23242-5.5708-9.58008-13.59033-9.58008
	     c-25.17578,0-35.4248,22.72461-35.4248,37.87451c0,3.56396,1.33691,4.00977,2.67383,4.00977
	     c3.34131,0,8.68945-2.22852,16.0415-2.22852c12.47559,0,18.71387,7.57617,18.71387,14.92822
	     c0,7.35254-6.01514,14.48047-17.82275,14.48047c-16.48682,0-21.3877-15.37158-24.28467-15.37158
	     c-3.56494,0-18.04639,14.7041-18.04639,35.20068c0,23.83789,17.60107,52.1333,53.24707,52.1333
	     c27.84863,0,53.24756-21.83447,53.24756-45.22656c0-12.03174-7.12939-21.8335-20.05078-21.8335
	     c-10.02637,0-18.93799,6.46045-18.93799,17.82373c0,8.46484,6.01514,11.80615,9.13477,11.80615
	     c6.01514,0,6.23779-4.8999,9.13477-4.8999c1.11377,0,1.55859,1.11279,1.55859,2.00439c0,3.56494-4.90137,8.68896-12.69873,8.68896
	     c-13.14453,0-18.49121-14.25879-18.49121-20.94238c0-24.06152,26.06592-29.63086,54.36035-42.32959
	     c22.05615-9.80322,34.97803-20.2749,34.97803-36.31494c0-6.90674-6.01514-16.0415-17.37695-16.0415
	     c-3.56543,0-12.25439,1.78271-12.25439,11.58594c0,6.90674,10.47168,5.79102,10.47168,10.0249s-2.00537,9.13477-10.47168,9.13477
	     c-6.68359,0-10.4707-6.23779-10.4707-14.03564c0-13.59082,14.03564-22.7251,25.1748-22.7251
	     c12.92285,0,24.06152,11.58545,24.06152,25.39893c0,36.98193-49.45898,47.89941-49.45898,52.57764
	     c0,2.44971,13.36719,4.67822,13.36719,23.39355c0,12.47559-4.67822,26.06592-14.92725,36.09082
	     c-16.93115,16.93213-33.86377,24.9541-60.37549,24.9541c-34.31055,0-61.49072-16.93262-61.49072-51.01904
	     C105.32861,273.08301,117.1377,255.70605,126.93945,247.46289z M163.7002,253.69922c4.45508,0,8.46582-3.34082,8.46582-7.57373
	     c0-6.90625-8.02051-8.46582-11.36279-8.46582c-4.67822,0-9.35645,2.89648-9.35645,6.01514
	     C151.44678,246.79297,156.79346,253.69922,163.7002,253.69922z"/>
  </g>
  <g class="letters">
    <g class="hh" opacity="0.95">
      <path d="M6.29932,352.04346c6.30078,0,12.82422,0.8999,25.42285,0.8999c9.67334,0,5.62354-0.44922,19.79785-0.44922
	       c1.57422,0,4.94824,0.2251,4.94824,3.14941c0,2.0249-0.6748,3.82422-7.87256,3.82422c-6.9751,0-8.54932,19.34766-8.54932,28.12207
	       v8.32422c0,9.67285-0.45068,16.19775-0.45068,20.69775c0,7.64844,1.125,8.77344,7.64844,8.77344
	       c7.42432,0,3.82568-0.22559,36.89697-0.22559c4.94873,0,13.27295,0.22559,42.51904,0.45068c2.25,0,2.4751-1.3501,2.4751-31.27197
	       v-12.14795c0-31.49609-18.89697-18.22266-18.89697-26.99707c0-1.7998,3.37354-2.25,8.77344-2.25
	       c5.39844,0,13.04785,0.4502,21.82275,0.4502c5.39844,0,9.44775-0.4502,17.54785-0.4502c2.02441,0,5.17432,0.67578,5.17432,2.92578
	       c0,2.92432-2.25,2.92432-3.1499,2.92432c-8.77441,0-12.82373,6.07422-12.82373,13.94775
	       c-0.2251,21.59717-0.6748,37.57129-0.6748,54.66846c0,10.79932-0.4502,21.59766-0.4502,33.74609v8.32373
	       c0,12.14844,0.8999,14.39844,0.8999,20.69775c0,13.27344,12.82373,15.97266,18.89795,16.64844
	       c0.67432,0,2.69922,0.2251,2.69922,2.47412c0,2.24951-2.92432,2.4751-11.02344,2.4751c-5.17432,0-10.79785-1.125-17.32275-1.125
	       c-8.54932,0-10.57373,1.125-21.14697,1.125c-5.8501,0-8.09863,0-8.09863-2.9248c0-4.27441,13.94775-3.14941,15.52197-11.69873
	       c1.125-5.84912,1.57422-11.47412,1.57422-16.42334c0-4.49854,0.22656-8.54932,0.22656-12.14795
	       c0-8.32422,0.44922-17.54834,0.44922-27.67188c0-4.04932-1.57422-6.07422-14.17285-6.07422
	       c-5.84912,0-26.32275,0.6748-27.67188,0.6748c-18.67285,0-26.99707-0.6748-41.39551-0.6748
	       c-4.04932,0-5.62451,0.44922-5.62451,8.32422c0,10.79834-0.89844,18.89697-0.89844,27.67188v9.67285
	       c0,11.47363,0.67432,17.32422,10.57275,23.62207c1.125,0.67578,4.94922,1.125,9.67432,1.125c2.25,0,4.27344,1.3501,4.27344,2.4751
	       c0,3.59912-3.37402,4.0498-7.19824,4.0498c-12.14795,0-11.24951-0.8999-18.67383-0.8999
	       c-11.69775,0-16.19775,1.125-24.29688,1.125C4.5,512,3.15088,510.42432,3.15088,508.625
	       c0-6.07422,13.27344,0.2251,16.64844-14.39844c0.67432-3.59863,2.92432-33.52051,2.92432-60.06787v-12.82324
	       c0-6.52441,0.22412-15.07275,0.22412-24.29639c0-9.22412-0.22412-18.67285-1.34912-26.77197
	       c-1.125-8.1001-10.34863-11.92432-16.87354-11.92432c-3.6001,0-4.7251-3.14941-4.7251-3.82422
	       C0,352.04346,3.375,352.04346,6.29932,352.04346z"/>
      <path d="M180.3457,352.04346c6.29834,0,12.82275,0.8999,25.42188,0.8999c9.67285,0,5.62354-0.44922,19.79785-0.44922
	       c1.57422,0,4.94922,0.2251,4.94922,3.14941c0,2.0249-0.67578,3.82422-7.875,3.82422c-6.97363,0-8.54834,19.34766-8.54834,28.12207
	       v8.32422c0,9.67285-0.4502,16.19775-0.4502,20.69775c0,7.64844,1.125,8.77344,7.64941,8.77344
	       c7.42334,0,3.82422-0.22559,36.89551-0.22559c4.94922,0,13.27344,0.22559,42.51904,0.45068
	       c2.25,0,2.47559-1.3501,2.47559-31.27197v-12.14795c0-31.49609-18.89844-18.22266-18.89844-26.99707
	       c0-1.7998,3.375-2.25,8.77441-2.25c5.3999,0,13.04834,0.4502,21.82275,0.4502c5.39844,0,9.44922-0.4502,17.54785-0.4502
	       c2.0249,0,5.1748,0.67578,5.1748,2.92578c0,2.92432-2.25,2.92432-3.1499,2.92432c-8.77441,0-12.82422,6.07422-12.82422,13.94775
	       c-0.2251,21.59717-0.67432,37.57129-0.67432,54.66846c0,10.79932-0.45068,21.59766-0.45068,33.74609v8.32373
	       c0,12.14844,0.8999,14.39844,0.8999,20.69775c0,13.27344,12.82422,15.97266,18.89844,16.64844
	       c0.67432,0,2.69922,0.2251,2.69922,2.47412c0,2.24951-2.9248,2.4751-11.02344,2.4751c-5.17432,0-10.79834-1.125-17.32275-1.125
	       c-8.54932,0-10.57422,1.125-21.14844,1.125c-5.84863,0-8.09863,0-8.09863-2.9248c0-4.27441,13.94922-3.14941,15.52344-11.69873
	       c1.125-5.84912,1.5752-11.47412,1.5752-16.42334c0-4.49854,0.22412-8.54932,0.22412-12.14795
	       c0-8.32422,0.45068-17.54834,0.45068-27.67188c0-4.04932-1.57471-6.07422-14.17334-6.07422
	       c-5.84912,0-26.32275,0.6748-27.67139,0.6748c-18.67285,0-26.99707-0.6748-41.39551-0.6748
	       c-4.04932,0-5.625,0.44922-5.625,8.32422c0,10.79834-0.89941,18.89697-0.89941,27.67188v9.67285
	       c0,11.47363,0.67529,17.32422,10.57373,23.62207c1.125,0.67578,4.94922,1.125,9.67432,1.125
	       c2.24902,0,4.2749,1.3501,4.2749,2.4751c0,3.59912-3.375,4.0498-7.2002,4.0498c-12.14844,0-11.24854-0.8999-18.67188-0.8999
	       c-11.69922,0-16.19922,1.125-24.29785,1.125c-9.22412,0-10.57275-1.57568-10.57275-3.375
	       c0-6.07422,13.27295,0.2251,16.64697-14.39844c0.67578-3.59863,2.92529-33.52051,2.92529-60.06787v-12.82324
	       c0-6.52441,0.22412-15.07275,0.22412-24.29639c0-9.22412-0.22412-18.67285-1.34863-26.77197
	       c-1.125-8.1001-10.34912-11.92432-16.87354-11.92432c-3.59912,0-4.72412-3.14941-4.72412-3.82422
	       C174.04639,352.04346,177.41992,352.04346,180.3457,352.04346z"/>
    </g>
    <g class="jw" opacity="0.95">
      <path d="M108.43652,0.8999c4.94922,0,9.89795,0.6748,24.74707,0.6748c10.79785,0,16.42285-0.6748,19.34717-0.6748
	       c2.69922,0,3.1499,0.6748,3.1499,2.69971c0,3.59961-9.67432,3.14941-9.67432,10.57324c0,6.97461,7.875,20.92285,31.94629,76.04102
	       c7.42432,17.09814,17.32275,41.84521,19.57275,41.84521c1.3501,0,12.37354-24.74707,18.44775-40.27051
	       c2.24951-5.84863,4.49951-7.87354,4.49951-12.14795c0-2.9248-25.19727-61.19287-30.82129-67.49219
	       c-4.49951-4.94922-6.97363-4.49951-10.12354-4.72412c-8.99951-0.90039-8.99951-1.57471-8.99951-3.6001
	       c0-2.92432,4.04932-3.14893,6.52441-3.14893c4.94922,0,9.89844,0.89941,24.74707,0.89941
	       c2.0249,0,9.22412-0.89941,14.84863-0.89941c3.82422,0,6.74902,0.44971,6.74902,1.79932c0,3.375-9.67432,4.04932-9.67432,11.47363
	       c0,4.94922,2.7002,10.34912,6.9751,20.02295c2.02441,4.49902,8.54785,22.72217,10.57275,22.72217
	       c2.4751,0,16.19873-38.4707,16.19873-42.97021c0-9.44824-13.49854-6.07422-13.49854-10.79883
	       c0-2.02441,1.7998-2.47461,4.94922-2.47461c3.1499,0,10.12354,0.4502,14.39844,0.4502h3.82422
	       c2.92432,0,6.07422-0.22461,11.92432-0.6748h2.02441c1.57471,0,2.9248,0.4502,2.9248,2.24951
	       c0,4.04932-6.5249,2.69971-10.12354,6.52393c-2.0249,2.0249-4.2749,5.3999-6.29932,10.34912
	       c-20.02344,47.69434-20.24854,46.79443-20.24854,51.29395c0,1.12451,26.09717,62.99219,29.92139,62.99219
	       c3.6001,0,49.71973-111.81104,49.71973-119.23535c0-10.57422-16.64844-6.07422-16.64844-11.47412
	       c0-2.02441,0.2251-2.24902,4.27441-2.24902c2.69922,0,6.2998,0.22461,14.17334,0.22461c8.54932,0,8.99854-0.4502,20.02295-0.4502
	       c2.47412,0,4.49902,0.4502,4.49902,3.1499c0,3.59961-4.49902,3.14941-9.22412,7.87402
	       c-3.82422,3.82422-4.94922,7.64941-8.77344,16.19775c-61.86768,138.58398-60.74268,138.80859-63.89258,138.80859
	       c-2.4751,0-6.97363-12.59814-10.34863-20.02246c-9.44922-21.82227-22.27197-53.76855-24.52197-53.76855
	       c-3.375,0-28.57129,63.89209-29.02148,65.69189c-2.25,6.52441-2.47559,8.77393-4.72412,8.77393
	       c-4.7251,0-10.57422-23.17188-31.04639-67.71631c-16.42334-35.771-23.39844-53.99365-27.67188-64.56787
	       c-15.52295-38.69531-31.72217-20.47217-31.72217-30.82129C102.36084,1.125,105.96094,0.8999,108.43652,0.8999z"/>
      <path d="M27.97998,182.67822c3.8252,0,4.72412,7.64893,13.04932,7.64893c8.99707,0,13.72266-7.42432,15.52295-17.54785
	       c2.02393-10.57422,2.9248-19.79785,2.9248-27.22168c0-5.3999-0.22656-27.22168-0.22656-27.67139
	       c0-15.29883-0.67432,0.22461-0.67432-76.71631c0-8.32373-0.22559-16.42285-0.8999-22.27246
	       c-0.8999-7.87402-10.79932-10.79834-17.09766-11.02344c-4.5-0.2251-4.9502-2.9248-4.9502-4.0498
	       c0-2.0249,1.125-3.82422,6.52441-3.82422c6.29932,0,12.82422,1.34961,25.42285,1.34961
	       c9.67334,0,4.04932-0.22461,18.22266-0.22461c1.5752,0,6.29834,0,6.29834,2.92432c0,2.0249-3.82324,3.59961-10.34766,6.29932
	       c-4.2749,1.5752-4.72559,8.32422-4.72559,15.29834v10.34863c0,108.88672-0.44922,98.08838-0.44922,108.88672
	       c0,35.09619-22.27295,58.71826-46.56982,58.71826c-3.37451,0-8.99854-0.45068-8.99854-8.54932
	       C21.00586,190.55176,25.50586,182.67822,27.97998,182.67822z"/>
    </g>
  </g>
</svg>
